<?xml version="1.0" encoding="utf-8"?>
<!-- Generator: Adobe Illustrator 27.2.0, SVG Export Plug-In . SVG Version: 6.00 Build 0)  -->
<svg version="1.1" id="Layer_1" xmlns="http://www.w3.org/2000/svg" xmlns:xlink="http://www.w3.org/1999/xlink" x="0px" y="0px"
	 viewBox="0 0 1000 1000" style="enable-background:new 0 0 1000 1000;" xml:space="preserve">
<style type="text/css">
	.st0{fill:#071E4F;}
	.st1{fill:#0053E7;}
	.st2{fill:#00A5FF;}
	.st3{fill:url(#SVGID_1_);}
	.st4{fill:#FF5122;}
	.st5{fill:#FF9300;}
	.st6{fill:url(#SVGID_00000093145932930804784310000006897464716770809483_);}
	.st7{fill:#009457;}
	.st8{fill:#00D17D;}
	.st9{fill:url(#SVGID_00000160890172860895682490000004657209023501645749_);}
	.st10{fill:#7100E5;}
	.st11{fill:#C58BF3;}
	.st12{fill:url(#SVGID_00000168827309614034747700000004401547805074554768_);}
	.st13{fill:#001F55;}
</style>
<g>
	<g>
		<polygon class="st0" points="428.4,426.8 464.7,387.6 489,387.6 446.5,433.1 491,479.5 466.2,479.5 428.4,439.9 428.4,479.5 
			409.1,479.5 409.1,387.6 428.4,387.6 		"/>
		<path class="st0" d="M515.2,479.5h-21.1l54.7-95.6l54.7,95.6h-21.3l-9.8-17.6h-47.3L515.2,479.5L515.2,479.5z M533.6,446.8h30.2
			L548.6,420L533.6,446.8L533.6,446.8z"/>
		<path class="st0" d="M637.9,407.6c-4.5,2.7-8,6.4-10.6,11c-2.6,4.6-3.9,9.6-3.9,14.9s1.3,10.3,3.9,14.9c2.6,4.6,6.2,8.3,10.6,11
			c4.5,2.7,9.4,4.1,14.7,4.1c9.3,0,18-3.2,26.2-9.6v20.8c-6.8,4.5-15.5,6.8-26.2,6.8c-8.9,0-17-2.2-24.5-6.5
			c-7.5-4.3-13.4-10.2-17.8-17.5c-4.4-7.3-6.5-15.3-6.5-24.1s2.2-16.7,6.5-24.1c4.4-7.3,10.3-13.1,17.8-17.5s15.7-6.5,24.5-6.5
			c10.2,0,19.1,2.5,26.6,7.5l-0.3,20.1c-8.3-6.4-17-9.6-26.3-9.6C647.3,403.5,642.4,404.8,637.9,407.6L637.9,407.6z"/>
		<path class="st0" d="M718.4,405.4c-2.6,2-3.8,4.6-3.8,7.7c0,2.2,0.8,4,2.5,5.4c1.7,1.4,3.8,2.4,6.4,3.2c2.6,0.8,6.2,1.6,10.9,2.4
			c7.1,1.4,13,2.8,17.6,4.4c4.6,1.6,8.6,4.3,12,8.2c3.4,3.9,5,9.2,5,16c0,9.4-3.5,16.6-10.5,21.5c-7,4.9-16.4,7.4-28.2,7.4
			c-8.4,0-16-1.3-22.7-3.9c-6.7-2.6-11.8-5.7-15.5-9.2l8.4-15.4c3.9,3.3,8.5,6,13.7,8.2c5.2,2.1,10.6,3.2,16.3,3.2
			c6.3,0,11-1,13.9-3.1c3-2.1,4.4-4.9,4.4-8.3c0-2.2-0.8-4-2.5-5.4c-1.7-1.4-3.8-2.4-6.3-3.2c-2.5-0.8-6.2-1.6-10.9-2.5
			c-7.1-1.4-12.9-2.9-17.4-4.5c-4.5-1.6-8.5-4.3-11.8-8.1c-3.3-3.8-5-9-5-15.6c0-5.8,1.5-10.8,4.4-15c3-4.3,7.1-7.5,12.5-9.7
			c5.4-2.2,11.6-3.4,18.5-3.4c7.6,0,14.3,1.4,20.3,4.1c6,2.7,11,5.9,14.9,9.6l-8.1,14.6c-9.2-7.6-18.2-11.5-27.3-11.5
			C724.9,402.4,721,403.4,718.4,405.4L718.4,405.4z"/>
		<polygon class="st0" points="829,479.5 809.7,479.5 809.7,404.8 780.1,404.8 780.1,387.6 858.6,387.6 858.6,404.8 829,404.8 		"/>
	</g>
	<g>
		<path class="st0" d="M414.3,555.9c1.3-0.5,2.4-1.1,3.3-1.8c0.9-0.7,1.6-1.6,2.2-2.7c0.6-1,1-2.3,1.2-3.7h39.7v-18.4h-5.9v13.5
			h-33.4v-13.5h-5.9v15.5c0,1-0.1,2-0.2,2.7s-0.5,1.5-0.9,2s-1.1,1.1-1.9,1.5c-0.8,0.4-1.9,0.7-3.2,1l0.8,5
			C411.6,556.7,413,556.4,414.3,555.9L414.3,555.9z"/>
		<path class="st0" d="M416.2,523c0.3,0.3,0.6,0.5,0.9,0.6c0.4,0.1,0.7,0.2,1.1,0.2s0.8-0.1,1.1-0.2c0.4-0.1,0.7-0.4,0.9-0.6
			c0.3-0.3,0.5-0.6,0.6-0.9c0.1-0.3,0.2-0.7,0.2-1.1s-0.1-0.8-0.2-1.1c-0.1-0.3-0.4-0.6-0.6-0.9c-0.3-0.3-0.6-0.5-0.9-0.6
			c-0.4-0.1-0.7-0.2-1.1-0.2s-0.8,0.1-1.1,0.2c-0.4,0.1-0.7,0.4-0.9,0.6c-0.3,0.3-0.5,0.6-0.6,0.9c-0.1,0.3-0.2,0.7-0.2,1.1
			s0.1,0.8,0.2,1.1C415.7,522.4,415.9,522.7,416.2,523z"/>
		<path class="st0" d="M454.5,551.5c-0.4-0.1-0.7-0.2-1.1-0.2c-0.4,0-0.8,0.1-1.1,0.2c-0.4,0.1-0.7,0.4-0.9,0.6
			c-0.3,0.3-0.5,0.6-0.6,0.9c-0.1,0.3-0.2,0.7-0.2,1.1s0.1,0.8,0.2,1.1c0.1,0.3,0.4,0.6,0.6,0.9c0.3,0.3,0.6,0.5,0.9,0.6
			s0.7,0.2,1.1,0.2c0.4,0,0.8-0.1,1.1-0.2c0.4-0.1,0.7-0.4,0.9-0.6c0.3-0.3,0.5-0.6,0.6-0.9c0.1-0.3,0.2-0.7,0.2-1.1
			s-0.1-0.8-0.2-1.1c-0.1-0.3-0.4-0.6-0.6-0.9C455.2,551.9,454.9,551.6,454.5,551.5z"/>
		<path class="st0" d="M459.1,551.5c-0.4,0.1-0.7,0.4-0.9,0.6c-0.3,0.3-0.5,0.6-0.6,0.9c-0.1,0.3-0.2,0.7-0.2,1.1s0.1,0.8,0.2,1.1
			c0.1,0.3,0.4,0.6,0.6,0.9c0.3,0.3,0.6,0.5,0.9,0.6s0.7,0.2,1.1,0.2c0.4,0,0.8-0.1,1.1-0.2c0.4-0.1,0.7-0.4,0.9-0.6
			c0.3-0.3,0.5-0.6,0.6-0.9c0.1-0.3,0.2-0.7,0.2-1.1s-0.1-0.8-0.2-1.1c-0.1-0.3-0.4-0.6-0.6-0.9c-0.3-0.3-0.6-0.5-0.9-0.6
			c-0.4-0.1-0.7-0.2-1.1-0.2C459.8,551.3,459.4,551.4,459.1,551.5z"/>
		<path class="st0" d="M468.6,555.9c1.3-0.5,2.4-1.1,3.3-1.8c0.9-0.7,1.6-1.6,2.2-2.7c0.6-1,1-2.3,1.2-3.7h7.7c1,0,2-0.1,2.9-0.2
			c0.9-0.1,1.8-0.3,2.7-0.5c0.8-0.2,1.6-0.5,2.4-0.8c0.7-0.3,1.4-0.6,2.1-0.9c0.5,0.2,1,0.5,1.7,0.8s1.4,0.5,2.3,0.8
			c0.9,0.2,1.8,0.5,2.8,0.6c1,0.2,2.1,0.2,3.2,0.2h14.6v-32.2h-5.9v27.3h-7.5c-0.6,0-1.2,0-1.8-0.1c-0.6,0-1.2-0.1-1.7-0.2
			c-0.6-0.1-1.1-0.1-1.6-0.2c-0.5-0.1-0.9-0.2-1.3-0.3c1-1.1,1.9-2.1,2.6-3c0.7-0.9,1.2-1.8,1.6-2.5c0.4-0.8,0.6-1.5,0.8-2.1
			c0.1-0.6,0.2-1.1,0.2-1.6c0-0.8-0.2-1.6-0.7-2.2c-0.5-0.6-1.1-1.1-1.9-1.5s-1.6-0.7-2.6-0.8c-1-0.2-1.9-0.3-2.8-0.3
			c-1.1,0-2.2,0.1-3.3,0.2c-1,0.2-2,0.4-2.9,0.6c-0.9,0.2-1.7,0.5-2.4,0.8s-1.3,0.6-1.8,0.8c-0.2,0.1-0.5,0.4-0.7,0.7
			c-0.2,0.3-0.4,0.7-0.6,1.1c-0.2,0.4-0.3,0.8-0.5,1.3s-0.2,0.8-0.3,1.1c0.1,0.1,0.3,0.4,0.6,0.7c0.3,0.3,0.6,0.8,1,1.3
			c0.3,0.3,0.6,0.7,0.9,1.2c0.4,0.5,0.7,0.9,1.2,1.4s0.8,1,1.3,1.4c0.4,0.5,0.9,0.9,1.3,1.3c-0.5,0.2-1.3,0.4-2.3,0.5
			c-1,0.1-2.1,0.2-3.3,0.2h-7.7v-13.5h-5.9v15.5c0,1-0.1,2-0.2,2.7c-0.2,0.8-0.5,1.5-0.9,2c-0.4,0.6-1.1,1.1-1.9,1.5
			c-0.8,0.4-1.9,0.7-3.2,1l0.8,5C465.9,556.7,467.4,556.4,468.6,555.9L468.6,555.9z M488.9,535.3c-0.4-0.6-0.7-1.1-1-1.5
			c0.4-0.2,0.9-0.4,1.4-0.5c0.5-0.2,1-0.3,1.5-0.4c0.5-0.1,1-0.2,1.4-0.3c0.5-0.1,0.9-0.1,1.2-0.1c0.6,0,1.2,0.1,1.7,0.2
			c0.5,0.1,0.9,0.3,1.3,0.5s0.6,0.5,0.8,0.7c0.2,0.3,0.3,0.6,0.3,0.9c0,0.3-0.1,0.6-0.2,1c-0.1,0.4-0.4,0.8-0.7,1.3
			c-0.3,0.5-0.7,1-1.2,1.5s-1.1,1-1.9,1.6c-0.5-0.4-1-0.8-1.6-1.4c-0.6-0.6-1.1-1.2-1.6-1.8C489.8,536.4,489.3,535.8,488.9,535.3
			L488.9,535.3z"/>
		<path class="st0" d="M470.5,523c0.3,0.3,0.6,0.5,0.9,0.6c0.4,0.1,0.7,0.2,1.1,0.2c0.4,0,0.8-0.1,1.1-0.2c0.4-0.1,0.7-0.4,0.9-0.6
			c0.3-0.3,0.5-0.6,0.6-0.9c0.1-0.3,0.2-0.7,0.2-1.1s-0.1-0.8-0.2-1.1c-0.1-0.3-0.4-0.6-0.6-0.9c-0.3-0.3-0.6-0.5-0.9-0.6
			c-0.4-0.1-0.7-0.2-1.1-0.2c-0.4,0-0.8,0.1-1.1,0.2c-0.4,0.1-0.7,0.4-0.9,0.6c-0.3,0.3-0.5,0.6-0.6,0.9c-0.1,0.3-0.2,0.7-0.2,1.1
			s0.1,0.8,0.2,1.1C470,522.4,470.3,522.7,470.5,523z"/>
		<rect x="523.6" y="515.5" class="st0" width="5.9" height="32.2"/>
		<path class="st0" d="M546.7,547.1c1.3-0.4,2.3-1,3.1-1.7c0.8,0.7,1.8,1.3,3,1.7c1.1,0.4,2.4,0.6,3.9,0.6c0,0,0,0,0,0
			c0.1,0,0.3,0,0.4,0h4.7c1.1,0,2.1-0.2,2.9-0.5c0.8-0.3,1.5-0.8,2-1.3c0.8,0.6,1.8,1,2.8,1.3c1.1,0.3,2.4,0.5,3.9,0.5h21.4v-4.9
			h-6.4c-0.8,0-1.5-0.1-2.1-0.4c-0.6-0.3-1.2-0.6-1.6-1.1c-0.5-0.5-0.8-1-1.1-1.6c-0.2-0.6-0.4-1.3-0.4-2.1c0-0.8,0.1-1.5,0.4-2.1
			c0.3-0.6,0.6-1,1.1-1.3c0.4-0.3,0.9-0.5,1.4-0.7c0.5-0.1,1-0.2,1.5-0.2c0.4,0,0.9,0,1.4,0.1s0.9,0.1,1.3,0.2
			c0.4,0.1,0.8,0.2,1.2,0.3c0.4,0.1,0.7,0.2,0.9,0.3l0.6-5.1c-0.3-0.1-0.7-0.2-1.2-0.3c-0.5-0.1-1-0.2-1.5-0.2
			c-0.5-0.1-1-0.1-1.5-0.2c-0.5,0-0.9-0.1-1.2-0.1c-1.5,0-2.8,0.3-4.1,0.8c-1.2,0.5-2.3,1.2-3.2,2.1c-0.9,0.9-1.6,1.9-2.1,3.1
			s-0.7,2.5-0.7,3.8c0,0.3,0,0.7,0.1,1.1c0.1,0.4,0.1,0.8,0.2,1.2c0.1,0.4,0.2,0.8,0.3,1.2c0.1,0.4,0.2,0.8,0.4,1.2h-5.1
			c-0.9,0-1.8-0.1-2.7-0.2c-0.9-0.1-1.7-0.4-2.4-0.7c0-0.2,0.1-0.5,0.1-0.8s0-0.5,0-0.8v-11h-5.9v10.2c0,0.6-0.1,1.2-0.2,1.6
			c-0.1,0.4-0.3,0.7-0.5,1c-0.2,0.2-0.5,0.4-0.9,0.5c-0.4,0.1-0.8,0.2-1.3,0.2h-2.6c-1,0-1.9-0.1-2.8-0.2c-0.9-0.2-1.7-0.4-2.5-0.8
			c0.2-0.7,0.2-1.4,0.2-2.2c0-2.1-0.8-4.2-2.3-6.5c-1.5-2.3-3.8-4.6-6.8-7l-4.3,4.1c0.9,0.7,1.8,1.5,2.7,2.4s1.7,1.7,2.4,2.5
			c0.7,0.8,1.3,1.7,1.7,2.5c0.4,0.8,0.7,1.6,0.7,2.3c0,0.4-0.1,0.8-0.2,1.1c-0.1,0.3-0.3,0.6-0.6,0.9c-0.3,0.2-0.7,0.4-1.3,0.6
			c-0.6,0.1-1.3,0.2-2.2,0.2h-8.7v4.9h8.6C543.8,547.7,545.4,547.5,546.7,547.1L546.7,547.1z"/>
		<path class="st0" d="M565.6,557c0.4,0,0.8-0.1,1.1-0.2c0.4-0.1,0.7-0.4,0.9-0.6c0.3-0.3,0.5-0.6,0.6-0.9c0.1-0.3,0.2-0.7,0.2-1.1
			s-0.1-0.8-0.2-1.1s-0.4-0.6-0.6-0.9s-0.6-0.5-0.9-0.6s-0.7-0.2-1.1-0.2c-0.4,0-0.8,0.1-1.1,0.2s-0.7,0.4-0.9,0.6s-0.5,0.6-0.6,0.9
			c-0.1,0.3-0.2,0.7-0.2,1.1s0.1,0.8,0.2,1.1c0.1,0.3,0.4,0.6,0.6,0.9s0.6,0.5,0.9,0.6S565.2,557,565.6,557z"/>
		<path class="st0" d="M629.5,532.7H628c-0.4,0-0.8-0.1-1.1-0.2c-0.3-0.1-0.6-0.3-0.8-0.5c-0.2-0.2-0.4-0.4-0.5-0.6
			c-0.1-0.2-0.1-0.5-0.1-0.7c0-0.5,0.1-0.8,0.4-1c0.3-0.2,0.7-0.3,1.2-0.3c0.3,0,0.6,0,0.9,0.1s0.7,0.1,1,0.2l0.4-2.8
			c-0.7-0.1-1.2-0.2-1.6-0.2c-0.4,0-0.8,0-1.1,0c-0.8,0-1.6,0.1-2.2,0.3c-0.6,0.2-1.1,0.4-1.5,0.8c-0.4,0.3-0.7,0.7-0.9,1.1
			c-0.2,0.4-0.3,0.9-0.3,1.4c0,0.4,0.1,0.9,0.2,1.3c0.2,0.5,0.4,0.8,0.6,1.2h-2.1v2.7h8.9L629.5,532.7L629.5,532.7z"/>
		<path class="st0" d="M691.1,545.1c0.4,0.4,0.9,0.7,1.4,1.1c0.5,0.3,1.1,0.6,1.7,0.8c0.6,0.2,1.3,0.4,2.1,0.5
			c0.6,0.1,1.3,0.2,2.1,0.2c0.1,0,11.8,0,11.8,0v-32.2h-5.9v27.3h-5.4c-1.1,0-2.1-0.1-3.1-0.3s-1.9-0.5-2.7-1
			c0.1-0.4,0.2-0.8,0.3-1.3c0.1-0.4,0.1-0.9,0.1-1.3c0-0.7-0.1-1.5-0.3-2.3c-0.2-0.8-0.4-1.5-0.8-2.3c-0.4-0.7-0.8-1.4-1.3-2.1
			c-0.5-0.7-1.2-1.2-1.9-1.7c-0.7-0.5-1.6-0.9-2.5-1.2c-0.9-0.3-1.9-0.4-3.1-0.4c-0.8,0-1.7,0.1-2.7,0.4c-1,0.3-2,0.8-3,1.6
			c-1,0.8-2,2-3,3.5c-1,1.5-1.8,3.5-2.5,5.9c-0.3,0.8-0.7,1.4-1.2,1.8c-0.6,0.4-1.2,0.6-1.9,0.6h-4.5c-0.9,0-1.8-0.1-2.7-0.2
			c-0.9-0.1-1.7-0.4-2.4-0.7c0-0.2,0.1-0.5,0.1-0.8c0-0.3,0-0.5,0-0.8v-24.9h-5.9v24.1c0,0.6-0.1,1.2-0.2,1.6
			c-0.1,0.4-0.3,0.7-0.5,1c-0.2,0.2-0.5,0.4-0.9,0.5c-0.4,0.1-0.8,0.2-1.3,0.2h-2.6c-0.9,0-1.8-0.1-2.7-0.2s-1.7-0.4-2.4-0.7
			c0-0.2,0.1-0.5,0.1-0.8c0-0.3,0-0.5,0-0.8v-24.8h-5.9v24c0,0.6-0.1,1.2-0.2,1.6c-0.1,0.4-0.3,0.7-0.5,1c-0.2,0.2-0.5,0.4-0.9,0.5
			c-0.4,0.1-0.8,0.2-1.3,0.2h-14.4c-1.9,0-3.5-0.1-4.6-0.3c-1.2-0.2-2.1-0.5-2.8-0.8s-1.1-0.9-1.3-1.5c-0.2-0.6-0.4-1.3-0.4-2.2
			c0-0.6,0-1.1,0.1-1.7c0.1-0.6,0.2-1.1,0.3-1.7l-5.2-0.4c-0.1,0.4-0.1,0.8-0.2,1.3c-0.1,0.4-0.1,0.9-0.2,1.3
			c-0.1,0.4-0.1,0.9-0.1,1.3s0,0.8,0,1.1c0,0.8,0.1,1.6,0.2,2.3s0.4,1.4,0.7,2.1s0.8,1.2,1.5,1.8c0.6,0.5,1.4,1,2.4,1.4
			c1,0.4,2.1,0.7,3.5,0.9c1.3,0.2,2.9,0.3,4.7,0.3h18c1.1,0,2.1-0.2,2.9-0.5c0.8-0.3,1.5-0.8,2-1.3c0.8,0.6,1.8,1,2.8,1.3
			c1.1,0.3,2.4,0.5,3.9,0.5h4.7c1.1,0,2.1-0.2,2.9-0.5c0.8-0.3,1.5-0.8,2-1.3c0.8,0.6,1.8,1,2.8,1.3c1.1,0.3,2.4,0.5,3.9,0.5h5.3
			c2.6,0,4.5-0.9,5.9-2.8c0.4,0.4,0.9,0.7,1.4,1.1c0.5,0.4,1.1,0.7,1.8,1c0.7,0.3,1.4,0.5,2.3,0.7c0.8,0.2,1.8,0.3,2.9,0.3
			c1.5,0,2.9-0.3,4.1-0.8S690.3,545.9,691.1,545.1L691.1,545.1z M687.6,540.9c-0.2,0.5-0.6,1-1,1.3c-0.4,0.3-1,0.6-1.6,0.7
			c-0.6,0.2-1.3,0.2-2,0.2c-0.5,0-1-0.1-1.6-0.2c-0.6-0.1-1.1-0.2-1.6-0.4c-0.5-0.2-1-0.4-1.4-0.6c-0.4-0.2-0.7-0.4-0.9-0.6
			c0.2-1,0.5-1.9,0.8-2.8s0.8-1.7,1.2-2.5s1-1.3,1.6-1.7s1.3-0.7,2-0.7s1.4,0.2,2,0.5c0.6,0.4,1.1,0.8,1.5,1.3
			c0.4,0.5,0.7,1.1,0.9,1.7c0.2,0.6,0.3,1.2,0.3,1.7C687.9,539.7,687.8,540.4,687.6,540.9L687.6,540.9z"/>
		<rect x="716.1" y="515.5" class="st0" width="5.9" height="32.2"/>
		<path class="st0" d="M737.1,544.5c0.8,0.6,1.8,1,2.8,1.3c1,0.3,2.1,0.4,3.1,0.4c1,0,2-0.1,2.9-0.3c0.9-0.2,1.9-0.6,2.9-1.1
			c0.2,0.4,0.5,0.8,0.8,1.1c0.3,0.4,0.8,0.7,1.3,0.9c0.5,0.3,1.2,0.5,1.9,0.6c0.7,0.2,1.6,0.2,2.7,0.2h26c1.1,0,2.1-0.2,2.9-0.5
			c0.8-0.3,1.5-0.8,2-1.3c0.8,0.6,1.8,1,2.8,1.3c1.1,0.3,2.4,0.5,3.9,0.5h11.8v-18.4h-5.9v13.5h-5.8c-0.9,0-1.8-0.1-2.7-0.2
			c-0.9-0.1-1.7-0.4-2.4-0.7c0-0.2,0.1-0.5,0.1-0.8c0-0.3,0-0.5,0-0.8v-11h-5.9v10.2c0,0.6-0.1,1.2-0.2,1.6c-0.1,0.4-0.3,0.7-0.5,1
			c-0.2,0.2-0.5,0.4-0.9,0.5c-0.4,0.1-0.8,0.2-1.3,0.2h-22.9c-0.5,0-0.8,0-1.1-0.1c-0.3-0.1-0.5-0.2-0.7-0.5
			c-0.2-0.2-0.3-0.5-0.3-0.8c-0.1-0.4-0.1-0.8-0.1-1.3v-14.5h-5.9v2.5c-0.9,0.2-1.8,0.5-2.9,0.8c-1.1,0.3-2.1,0.7-3.1,1.1
			c-1.1,0.4-2.1,0.9-3,1.5c-1,0.6-1.8,1.2-2.6,1.9c-0.8,0.7-1.4,1.6-1.8,2.5c-0.5,0.9-0.7,1.9-0.7,3.1c0,1.3,0.3,2.4,0.8,3.3
			C735.6,543.1,736.3,543.9,737.1,544.5L737.1,544.5z M740.5,536.4c0.4-0.6,1-1.1,1.7-1.6c0.7-0.5,1.6-0.9,2.7-1.3
			c1-0.4,2.2-0.7,3.5-1v7.6c-0.6,0.4-1.3,0.7-2.1,0.9c-0.8,0.2-1.6,0.4-2.5,0.4c-0.5,0-0.9-0.1-1.4-0.2c-0.5-0.1-0.9-0.3-1.3-0.5
			c-0.4-0.2-0.7-0.6-0.9-1c-0.2-0.4-0.4-0.9-0.4-1.5C739.9,537.7,740.1,537,740.5,536.4L740.5,536.4z"/>
		<path class="st0" d="M742.2,521.8c0.3,0.3,0.6,0.5,0.9,0.6c0.4,0.1,0.7,0.2,1.1,0.2c0.4,0,0.8-0.1,1.1-0.2
			c0.4-0.1,0.7-0.4,0.9-0.6c0.3-0.3,0.5-0.6,0.6-0.9c0.1-0.3,0.2-0.7,0.2-1.1s-0.1-0.8-0.2-1.1c-0.1-0.3-0.4-0.6-0.6-0.9
			c-0.3-0.3-0.6-0.5-0.9-0.6s-0.7-0.2-1.1-0.2c-0.4,0-0.8,0.1-1.1,0.2c-0.4,0.1-0.7,0.4-0.9,0.6s-0.5,0.6-0.6,0.9
			c-0.1,0.3-0.2,0.7-0.2,1.1s0.1,0.8,0.2,1.1C741.7,521.2,741.9,521.5,742.2,521.8z"/>
		<path class="st0" d="M749,521.8c0.3,0.3,0.6,0.5,0.9,0.6c0.4,0.1,0.7,0.2,1.1,0.2s0.8-0.1,1.1-0.2c0.4-0.1,0.7-0.4,0.9-0.6
			c0.3-0.3,0.5-0.6,0.6-0.9c0.1-0.3,0.2-0.7,0.2-1.1s-0.1-0.8-0.2-1.1c-0.1-0.3-0.4-0.6-0.6-0.9c-0.3-0.3-0.6-0.5-0.9-0.6
			s-0.7-0.2-1.1-0.2s-0.8,0.1-1.1,0.2c-0.4,0.1-0.7,0.4-0.9,0.6c-0.3,0.3-0.5,0.6-0.6,0.9c-0.1,0.3-0.2,0.7-0.2,1.1s0.1,0.8,0.2,1.1
			C748.5,521.2,748.7,521.5,749,521.8z"/>
		<path class="st0" d="M783,523c0.3,0.3,0.6,0.5,0.9,0.6c0.4,0.1,0.7,0.2,1.1,0.2s0.8-0.1,1.1-0.2c0.4-0.1,0.7-0.4,0.9-0.6
			c0.3-0.3,0.5-0.6,0.6-0.9c0.1-0.3,0.2-0.7,0.2-1.1s-0.1-0.8-0.2-1.1c-0.1-0.3-0.4-0.6-0.6-0.9c-0.3-0.3-0.6-0.5-0.9-0.6
			c-0.4-0.1-0.7-0.2-1.1-0.2s-0.8,0.1-1.1,0.2c-0.3,0.1-0.7,0.4-0.9,0.6c-0.3,0.3-0.5,0.6-0.6,0.9c-0.1,0.3-0.2,0.7-0.2,1.1
			s0.1,0.8,0.2,1.1C782.5,522.4,782.7,522.7,783,523z"/>
		<path class="st0" d="M803.2,551.5c-0.4,0.1-0.7,0.4-0.9,0.6c-0.3,0.3-0.5,0.6-0.6,0.9c-0.1,0.3-0.2,0.7-0.2,1.1s0.1,0.8,0.2,1.1
			c0.1,0.3,0.4,0.6,0.6,0.9c0.3,0.3,0.6,0.5,0.9,0.6s0.7,0.2,1.1,0.2s0.8-0.1,1.1-0.2c0.4-0.1,0.7-0.4,0.9-0.6
			c0.3-0.3,0.5-0.6,0.6-0.9c0.1-0.3,0.2-0.7,0.2-1.1s-0.1-0.8-0.2-1.1c-0.1-0.3-0.4-0.6-0.6-0.9c-0.3-0.3-0.6-0.5-0.9-0.6
			c-0.4-0.1-0.7-0.2-1.1-0.2S803.6,551.4,803.2,551.5z"/>
		<path class="st0" d="M798.7,551.5c-0.4-0.1-0.7-0.2-1.1-0.2c-0.4,0-0.8,0.1-1.1,0.2c-0.4,0.1-0.7,0.4-0.9,0.6s-0.5,0.6-0.6,0.9
			c-0.1,0.3-0.2,0.7-0.2,1.1s0.1,0.8,0.2,1.1c0.1,0.3,0.4,0.6,0.6,0.9s0.6,0.5,0.9,0.6s0.7,0.2,1.1,0.2c0.4,0,0.8-0.1,1.1-0.2
			c0.4-0.1,0.7-0.4,0.9-0.6s0.5-0.6,0.6-0.9c0.1-0.3,0.2-0.7,0.2-1.1s-0.1-0.8-0.2-1.1c-0.1-0.3-0.4-0.6-0.6-0.9
			S799,551.6,798.7,551.5z"/>
		<path class="st0" d="M857.5,536.7c-0.2-0.8-0.4-1.5-0.8-2.3c-0.4-0.7-0.8-1.4-1.3-2.1c-0.5-0.7-1.2-1.2-1.9-1.7
			c-0.7-0.5-1.6-0.9-2.5-1.2c-0.9-0.3-1.9-0.4-3.1-0.4c-0.8,0-1.7,0.1-2.7,0.4s-2,0.8-3,1.6c-1,0.8-2,2-3,3.5
			c-1,1.5-1.8,3.5-2.5,5.9c-0.3,0.8-0.7,1.4-1.2,1.8c-0.6,0.4-1.2,0.6-1.9,0.6h-1.1c-1,0-1.9-0.1-2.8-0.2c-0.9-0.2-1.7-0.4-2.5-0.8
			c0.2-0.7,0.2-1.4,0.2-2.2c0-2.1-0.8-4.2-2.3-6.5c-1.5-2.3-3.8-4.6-6.8-7l-4.3,4.1c0.9,0.7,1.8,1.5,2.7,2.4
			c0.9,0.8,1.7,1.7,2.4,2.5c0.7,0.8,1.3,1.7,1.7,2.5c0.4,0.8,0.7,1.6,0.7,2.3c0,0.4-0.1,0.8-0.2,1.1c-0.1,0.3-0.3,0.6-0.6,0.9
			c-0.3,0.2-0.7,0.4-1.3,0.6c-0.6,0.1-1.3,0.2-2.2,0.2h-8.7v4.9h8.6c1.8,0,3.4-0.2,4.7-0.6c1.3-0.4,2.3-1,3.1-1.7
			c0.8,0.7,1.8,1.3,3,1.7c1.1,0.4,2.4,0.6,3.9,0.6c0,0,0,0,0,0c0.1,0,0.3,0,0.4,0h1.9c2.6,0,4.5-0.9,5.9-2.8
			c0.4,0.4,0.9,0.7,1.4,1.1c0.5,0.4,1.1,0.7,1.8,1c0.7,0.3,1.4,0.5,2.3,0.7c0.8,0.2,1.8,0.3,2.9,0.3c1.5,0,2.8-0.2,4-0.7
			c1.2-0.5,2.1-1.2,2.9-2c0.8-0.8,1.4-1.8,1.8-2.9c0.4-1.1,0.6-2.2,0.6-3.4C857.8,538.2,857.7,537.5,857.5,536.7L857.5,536.7z
			 M852,540.9c-0.2,0.5-0.6,1-1,1.3c-0.4,0.3-1,0.6-1.6,0.7c-0.6,0.2-1.3,0.2-2,0.2c-0.5,0-1-0.1-1.6-0.2c-0.6-0.1-1.1-0.2-1.6-0.4
			c-0.5-0.2-1-0.4-1.4-0.6c-0.4-0.2-0.7-0.4-0.9-0.6c0.2-1,0.5-1.9,0.8-2.8s0.8-1.7,1.2-2.5c0.5-0.7,1-1.3,1.6-1.7
			c0.6-0.4,1.3-0.7,2-0.7c0.7,0,1.4,0.2,2,0.5s1.1,0.8,1.5,1.3c0.4,0.5,0.7,1.1,0.9,1.7c0.2,0.6,0.3,1.2,0.3,1.7
			C852.3,539.7,852.2,540.4,852,540.9L852,540.9z"/>
		<path class="st0" d="M421,572.2c-0.4-0.1-0.7-0.2-1.1-0.2s-0.8,0.1-1.1,0.2c-0.4,0.1-0.7,0.4-0.9,0.6s-0.5,0.6-0.6,0.9
			c-0.1,0.3-0.2,0.7-0.2,1.1s0.1,0.8,0.2,1.1c0.1,0.3,0.4,0.6,0.6,0.9s0.6,0.5,0.9,0.6s0.7,0.2,1.1,0.2s0.8-0.1,1.1-0.2
			s0.7-0.4,0.9-0.6s0.5-0.6,0.6-0.9c0.1-0.3,0.2-0.7,0.2-1.1s-0.1-0.8-0.2-1.1c-0.1-0.3-0.4-0.6-0.6-0.9S421.3,572.3,421,572.2z"/>
		<path class="st0" d="M427.8,572.2c-0.4-0.1-0.7-0.2-1.1-0.2s-0.8,0.1-1.1,0.2c-0.4,0.1-0.7,0.4-0.9,0.6s-0.5,0.6-0.6,0.9
			c-0.1,0.3-0.2,0.7-0.2,1.1s0.1,0.8,0.2,1.1c0.1,0.3,0.4,0.6,0.6,0.9s0.6,0.5,0.9,0.6s0.7,0.2,1.1,0.2s0.8-0.1,1.1-0.2
			s0.7-0.4,0.9-0.6s0.5-0.6,0.6-0.9c0.1-0.3,0.2-0.7,0.2-1.1s-0.1-0.8-0.2-1.1c-0.1-0.3-0.4-0.6-0.6-0.9S428.1,572.3,427.8,572.2z"
			/>
		<path class="st0" d="M517.6,607.2c-0.3-0.3-0.6-0.5-0.9-0.6c-0.4-0.1-0.7-0.2-1.1-0.2c-0.4,0-0.8,0.1-1.1,0.2
			c-0.4,0.1-0.7,0.4-0.9,0.6c-0.3,0.3-0.5,0.6-0.6,0.9c-0.1,0.3-0.2,0.7-0.2,1.1s0.1,0.8,0.2,1.1c0.1,0.3,0.4,0.6,0.6,0.9
			s0.6,0.5,0.9,0.6s0.7,0.2,1.1,0.2c0.4,0,0.8-0.1,1.1-0.2c0.4-0.1,0.7-0.4,0.9-0.6s0.5-0.6,0.6-0.9c0.1-0.3,0.2-0.7,0.2-1.1
			s-0.1-0.8-0.2-1.1C518.1,607.7,517.9,607.4,517.6,607.2z"/>
		<path class="st0" d="M524.4,607.2c-0.3-0.3-0.6-0.5-0.9-0.6c-0.4-0.1-0.7-0.2-1.1-0.2s-0.8,0.1-1.1,0.2c-0.4,0.1-0.7,0.4-0.9,0.6
			c-0.3,0.3-0.5,0.6-0.6,0.9c-0.1,0.3-0.2,0.7-0.2,1.1s0.1,0.8,0.2,1.1c0.1,0.3,0.4,0.6,0.6,0.9s0.6,0.5,0.9,0.6s0.7,0.2,1.1,0.2
			s0.8-0.1,1.1-0.2c0.4-0.1,0.7-0.4,0.9-0.6s0.5-0.6,0.6-0.9c0.1-0.3,0.2-0.7,0.2-1.1s-0.1-0.8-0.2-1.1
			C524.9,607.7,524.7,607.4,524.4,607.2z"/>
		<path class="st0" d="M533.4,578c0.3,0.3,0.6,0.5,0.9,0.6c0.4,0.1,0.7,0.2,1.1,0.2c0.4,0,0.8-0.1,1.1-0.2c0.4-0.1,0.7-0.4,0.9-0.6
			s0.5-0.6,0.6-0.9c0.1-0.3,0.2-0.7,0.2-1.1s-0.1-0.8-0.2-1.1c-0.1-0.3-0.4-0.6-0.6-0.9s-0.6-0.5-0.9-0.6c-0.4-0.1-0.7-0.2-1.1-0.2
			c-0.4,0-0.8,0.1-1.1,0.2c-0.3,0.1-0.7,0.4-0.9,0.6s-0.5,0.6-0.6,0.9c-0.1,0.3-0.2,0.7-0.2,1.1s0.1,0.8,0.2,1.1
			C532.9,577.4,533.1,577.7,533.4,578z"/>
		<path class="st0" d="M555,573.3c-0.4-0.1-0.7-0.2-1.1-0.2s-0.8,0.1-1.1,0.2c-0.4,0.1-0.7,0.4-0.9,0.6c-0.3,0.3-0.5,0.6-0.6,0.9
			c-0.1,0.3-0.2,0.7-0.2,1.1s0.1,0.8,0.2,1.1s0.4,0.6,0.6,0.9s0.6,0.5,0.9,0.6s0.7,0.2,1.1,0.2s0.8-0.1,1.1-0.2s0.7-0.4,0.9-0.6
			s0.5-0.6,0.6-0.9c0.1-0.3,0.2-0.7,0.2-1.1s-0.1-0.8-0.2-1.1c-0.1-0.3-0.4-0.6-0.6-0.9C555.6,573.7,555.3,573.5,555,573.3z"/>
		<path class="st0" d="M562.7,574c-0.3-0.3-0.6-0.5-0.9-0.6s-0.7-0.2-1.1-0.2c-0.4,0-0.8,0.1-1.1,0.2c-0.4,0.1-0.7,0.4-0.9,0.6
			s-0.5,0.6-0.6,0.9c-0.1,0.3-0.2,0.7-0.2,1.1s0.1,0.8,0.2,1.1s0.4,0.6,0.6,0.9s0.6,0.5,0.9,0.6s0.7,0.2,1.1,0.2
			c0.4,0,0.8-0.1,1.1-0.2s0.7-0.4,0.9-0.6s0.5-0.6,0.6-0.9c0.1-0.3,0.2-0.7,0.2-1.1s-0.1-0.8-0.2-1.1
			C563.2,574.5,563,574.2,562.7,574z"/>
		<path class="st0" d="M586.2,573.3c-0.4-0.1-0.7-0.2-1.1-0.2s-0.8,0.1-1.1,0.2s-0.7,0.4-0.9,0.6c-0.3,0.3-0.5,0.6-0.6,0.9
			c-0.1,0.3-0.2,0.7-0.2,1.1s0.1,0.8,0.2,1.1s0.4,0.6,0.6,0.9c0.3,0.3,0.6,0.5,0.9,0.6s0.7,0.2,1.1,0.2s0.8-0.1,1.1-0.2
			s0.7-0.4,0.9-0.6c0.3-0.3,0.5-0.6,0.6-0.9s0.2-0.7,0.2-1.1s-0.1-0.8-0.2-1.1c-0.1-0.3-0.4-0.6-0.6-0.9
			C586.9,573.7,586.6,573.5,586.2,573.3z"/>
		<path class="st0" d="M579.4,573.3c-0.4-0.1-0.7-0.2-1.1-0.2c-0.4,0-0.8,0.1-1.1,0.2c-0.3,0.1-0.7,0.4-0.9,0.6s-0.5,0.6-0.6,0.9
			c-0.1,0.3-0.2,0.7-0.2,1.1s0.1,0.8,0.2,1.1s0.4,0.6,0.6,0.9s0.6,0.5,0.9,0.6c0.4,0.1,0.7,0.2,1.1,0.2c0.4,0,0.8-0.1,1.1-0.2
			s0.7-0.4,0.9-0.6c0.3-0.3,0.5-0.6,0.6-0.9c0.1-0.3,0.2-0.7,0.2-1.1s-0.1-0.8-0.2-1.1c-0.1-0.3-0.4-0.6-0.6-0.9
			S579.7,573.5,579.4,573.3z"/>
		<path class="st0" d="M597.5,597.9h-7.7c-0.9,0-1.8-0.1-2.7-0.2c-0.9-0.1-1.7-0.4-2.4-0.7c0-0.2,0.1-0.5,0.1-0.8c0-0.3,0-0.5,0-0.8
			v-11h-5.9v10.2c0,0.6-0.1,1.2-0.2,1.6c-0.1,0.4-0.3,0.7-0.5,1c-0.2,0.2-0.5,0.4-0.9,0.5c-0.4,0.1-0.8,0.2-1.3,0.2h-10.3
			c0.1-0.4,0.3-0.8,0.5-1.2c0.2-0.5,0.3-1,0.5-1.5c0.1-0.5,0.3-1.1,0.4-1.6c0.1-0.5,0.1-1.1,0.1-1.5c0-1.2-0.2-2.2-0.6-3.3
			c-0.4-1-1-1.9-1.8-2.7c-0.8-0.8-1.7-1.4-2.9-1.8c-1.1-0.5-2.4-0.7-3.9-0.7c-1.7,0-3.2,0.2-4.5,0.7c-1.3,0.5-2.5,1.2-3.4,2
			c-0.9,0.9-1.7,1.9-2.2,3c-0.5,1.1-0.7,2.3-0.7,3.6c0,0.3,0,0.7,0.1,1.1c0.1,0.4,0.2,0.8,0.3,1.3c0.1,0.4,0.3,0.9,0.6,1.4
			c0.2,0.5,0.5,0.9,0.8,1.3h-5.8c-0.9,0-1.8-0.1-2.7-0.2c-0.9-0.1-1.7-0.4-2.4-0.7c0-0.2,0.1-0.5,0.1-0.8s0-0.5,0-0.8v-11h-5.9v10.2
			c0,0.6-0.1,1.2-0.2,1.6c-0.1,0.4-0.3,0.7-0.5,1c-0.2,0.2-0.5,0.4-0.9,0.5c-0.4,0.1-0.8,0.2-1.3,0.2H527c-0.9,0-1.8-0.1-2.7-0.2
			c-0.9-0.1-1.7-0.4-2.4-0.7c0-0.2,0.1-0.5,0.1-0.8c0-0.3,0-0.5,0-0.8v-11h-5.9v10.2c0,0.6-0.1,1.2-0.2,1.6c-0.1,0.4-0.3,0.7-0.5,1
			c-0.2,0.2-0.5,0.4-0.9,0.5c-0.4,0.1-0.8,0.2-1.3,0.2h-81.8c-0.5,0-0.8,0-1.1-0.1c-0.3-0.1-0.5-0.2-0.7-0.5
			c-0.2-0.2-0.3-0.5-0.3-0.8c-0.1-0.4-0.1-0.8-0.1-1.3v-14.5h-5.9v2.5c-0.9,0.2-1.8,0.5-2.9,0.8c-1.1,0.3-2.1,0.7-3.2,1.1
			c-1.1,0.4-2.1,0.9-3.1,1.5c-1,0.6-1.9,1.2-2.6,1.9s-1.4,1.6-1.8,2.5c-0.5,0.9-0.7,1.9-0.7,3.1c0,1.3,0.3,2.4,0.8,3.3
			c0.5,0.9,1.2,1.7,2.1,2.3c0.8,0.6,1.8,1,2.9,1.3s2.1,0.4,3.1,0.4c1,0,2-0.1,2.9-0.3c0.9-0.2,1.9-0.6,2.9-1.1
			c0.2,0.4,0.5,0.8,0.8,1.1c0.3,0.4,0.8,0.7,1.3,0.9c0.5,0.3,1.2,0.5,1.9,0.6c0.7,0.2,1.6,0.2,2.7,0.2h84.9c1.1,0,2.1-0.2,2.9-0.5
			c0.8-0.3,1.5-0.8,2-1.3c0.8,0.6,1.8,1,2.8,1.3c1.1,0.3,2.4,0.5,3.9,0.5h4.7c1.1,0,2.1-0.2,2.9-0.5c0.8-0.3,1.5-0.8,2-1.3
			c0.8,0.6,1.8,1,2.8,1.3c1.1,0.3,2.4,0.5,3.9,0.5h3.3c1.1,0,2.1,0,3.2-0.1c1.1,0,2.2-0.1,3.3-0.1c1.1-0.1,2.2-0.1,3.2-0.2
			c1-0.1,2-0.2,2.8-0.3c1.2,0.2,2.6,0.4,4.1,0.5c1.6,0.1,3.2,0.2,4.9,0.2h9.9c1.1,0,2.1-0.2,2.9-0.5c0.8-0.3,1.5-0.8,2-1.3
			c0.8,0.6,1.8,1,2.8,1.3c1.1,0.3,2.4,0.5,3.9,0.5h13.7v-32.2h-5.9L597.5,597.9L597.5,597.9z M423.4,595.3c-0.6,0.4-1.3,0.7-2.1,0.9
			c-0.8,0.2-1.6,0.4-2.5,0.4c-0.5,0-0.9-0.1-1.4-0.2c-0.5-0.1-0.9-0.3-1.3-0.5c-0.4-0.2-0.7-0.6-0.9-1c-0.2-0.4-0.4-0.9-0.4-1.5
			c0-0.7,0.2-1.4,0.6-2c0.4-0.6,1-1.1,1.7-1.6c0.7-0.5,1.7-0.9,2.7-1.3c1.1-0.4,2.2-0.7,3.5-1L423.4,595.3L423.4,595.3z
			 M561.1,594.2c-0.1,0.5-0.2,1-0.4,1.4c-0.1,0.5-0.3,0.9-0.5,1.3c-0.2,0.4-0.4,0.7-0.5,1h-0.9c-0.8,0-1.6-0.1-2.3-0.4
			c-0.7-0.3-1.3-0.6-1.9-1.1c-0.5-0.5-1-1.1-1.3-1.7c-0.3-0.7-0.5-1.4-0.5-2.3c0-0.7,0.1-1.4,0.4-1.9c0.2-0.5,0.6-1,1-1.4
			c0.4-0.4,0.9-0.6,1.4-0.8s1.1-0.3,1.6-0.3c0.5,0,1,0.1,1.5,0.3s0.9,0.5,1.3,0.9c0.4,0.4,0.7,0.9,0.9,1.5c0.2,0.6,0.3,1.3,0.3,2
			C561.3,593.2,561.2,593.7,561.1,594.2L561.1,594.2z"/>
		<rect x="609.3" y="570.6" class="st0" width="5.9" height="32.2"/>
		<path class="st0" d="M639.4,587.7c-0.5-0.8-1-1.5-1.7-2s-1.3-0.9-2-1.2c-0.7-0.3-1.4-0.5-2.1-0.6c-0.7-0.1-1.4-0.2-2.1-0.2
			c-1.5,0-2.9,0.3-4.2,0.8c-1.3,0.5-2.4,1.2-3.4,2.1c-1,0.9-1.7,2-2.3,3.2c-0.6,1.2-0.8,2.6-0.8,4.1c0,1,0.2,2.1,0.6,3.1
			c0.4,1.1,1,2,1.8,2.9c0.8,0.9,1.9,1.6,3.2,2.1c1.3,0.6,2.9,0.8,4.8,0.8c0.4,0,1,0,1.6-0.1c0.6-0.1,1.2-0.1,1.8-0.3
			c-0.3,0.7-0.8,1.3-1.5,1.8c-0.7,0.6-1.4,1.1-2.3,1.5c-0.9,0.5-1.9,0.8-3.1,1.2c-1.1,0.3-2.4,0.6-3.7,0.7h-0.5l0.5,4.8
			c2.5-0.2,4.7-0.6,6.8-1.2c2.1-0.6,3.8-1.4,5.3-2.5s2.6-2.5,3.5-4.2c0.8-1.7,1.2-3.8,1.2-6.4v-3.8c0-1.5-0.1-2.8-0.4-3.9
			C640.3,589.4,639.9,588.5,639.4,587.7L639.4,587.7z M635.1,597.6c-0.2,0.1-0.4,0.1-0.6,0.2c-0.2,0.1-0.5,0.1-0.8,0.2
			c-0.3,0-0.6,0.1-0.9,0.1s-0.6,0-0.8,0c-1,0-1.8-0.1-2.5-0.4c-0.7-0.2-1.3-0.6-1.7-1s-0.8-0.9-1-1.5s-0.3-1.3-0.3-2s0.1-1.4,0.4-2
			c0.2-0.6,0.6-1.1,1-1.6s0.9-0.8,1.4-1s1.1-0.4,1.7-0.4c0.5,0,1.1,0.1,1.6,0.3c0.5,0.2,1,0.6,1.4,1.1c0.4,0.5,0.7,1.3,1,2.3
			c0.2,1,0.4,2.2,0.4,3.7L635.1,597.6L635.1,597.6z"/>
		<path class="st0" d="M680.2,591.8c-0.2-0.7-0.4-1.5-0.7-2.2s-0.8-1.4-1.3-2.1c-0.5-0.7-1.2-1.3-1.9-1.8c-0.7-0.5-1.6-0.9-2.5-1.2
			c-0.9-0.3-2-0.5-3.2-0.5c-0.5,0-1.1,0.1-1.7,0.2c-0.6,0.1-1.3,0.3-1.9,0.6c-0.7,0.3-1.3,0.7-2,1.3c-0.7,0.5-1.4,1.2-2,2.1
			c-0.6,0.8-1.3,1.9-1.9,3c-0.6,1.2-1.1,2.6-1.6,4.2c-0.5,0.2-1,0.5-1.6,0.7c-0.6,0.3-1.2,0.6-1.7,1.1c-0.6,0.4-1.1,0.9-1.7,1.5
			c-0.5,0.6-1,1.2-1.4,2c-0.4,0.7-0.7,1.6-1,2.6c-0.2,1-0.4,2.1-0.4,3.3c0,0.8,0.1,1.7,0.3,2.8c0.2,1.1,0.4,2.3,0.7,3.5
			c0.2,1.1,0.5,2.1,0.8,3.2l5.3-2c-0.2-0.8-0.4-1.5-0.6-2.3c-0.2-1.1-0.4-2-0.5-3c-0.1-0.9-0.2-1.8-0.2-2.5c0-1.1,0.1-2,0.4-2.8
			c0.3-0.7,0.7-1.4,1.1-1.8c0.5-0.5,1-0.8,1.6-1.1c0.6-0.2,1.2-0.4,1.7-0.5c0.4,0.4,0.9,0.7,1.5,1c0.6,0.3,1.2,0.7,1.9,0.9
			c0.7,0.3,1.5,0.5,2.3,0.7c0.8,0.2,1.7,0.3,2.6,0.3c1.7,0,3.2-0.3,4.4-0.8c1.2-0.5,2.2-1.2,3-2.1c0.8-0.9,1.4-1.8,1.8-2.9
			c0.4-1.1,0.6-2.2,0.6-3.4C680.4,593.2,680.3,592.5,680.2,591.8L680.2,591.8z M674.6,596.1c-0.2,0.5-0.6,1-1,1.3
			c-0.4,0.3-1,0.5-1.6,0.6c-0.6,0.1-1.3,0.2-2,0.2c-0.5,0-1,0-1.6-0.2c-0.6-0.1-1.1-0.2-1.6-0.4c-0.5-0.2-1-0.4-1.4-0.6
			c-0.4-0.2-0.7-0.4-0.9-0.6c0.2-1,0.5-1.9,0.8-2.8s0.8-1.7,1.3-2.4c0.5-0.7,1.1-1.3,1.7-1.7c0.6-0.4,1.3-0.6,2.1-0.6s1.4,0.2,2,0.5
			c0.6,0.4,1,0.8,1.4,1.3c0.4,0.5,0.7,1.1,0.8,1.7c0.2,0.6,0.3,1.2,0.3,1.6C675,594.8,674.8,595.5,674.6,596.1L674.6,596.1z"/>
		<path class="st0" d="M851.9,597.9h-5.5c-0.9,0-1.8-0.1-2.7-0.2s-1.7-0.4-2.4-0.7c0-0.2,0.1-0.5,0.1-0.8c0-0.3,0-0.5,0-0.8v-24.9
			h-5.9v24.1c0,0.6-0.1,1.2-0.2,1.6c-0.1,0.4-0.3,0.7-0.5,1c-0.2,0.2-0.5,0.4-0.9,0.5s-0.8,0.2-1.3,0.2H828c-0.6,0-1.2,0-1.8-0.1
			c-0.6,0-1.2-0.1-1.7-0.2c-0.6-0.1-1.1-0.1-1.6-0.2c-0.5-0.1-0.9-0.2-1.3-0.3c1.1-1.1,1.9-2.1,2.6-3c0.7-0.9,1.2-1.8,1.6-2.5
			c0.4-0.8,0.6-1.5,0.8-2.1c0.1-0.6,0.2-1.1,0.2-1.6c0-0.8-0.2-1.6-0.7-2.2s-1.1-1.1-1.9-1.5c-0.8-0.4-1.6-0.7-2.6-0.8
			c-1-0.2-1.9-0.3-2.8-0.3c-1.1,0-2.2,0.1-3.3,0.2c-1,0.2-2,0.4-2.9,0.6c-0.9,0.2-1.7,0.5-2.4,0.8c-0.7,0.3-1.3,0.6-1.8,0.8
			c-0.2,0.1-0.5,0.4-0.7,0.7c-0.2,0.3-0.4,0.7-0.6,1.1c-0.2,0.4-0.4,0.8-0.5,1.3c-0.1,0.4-0.2,0.8-0.3,1.1c0.1,0.1,0.3,0.4,0.6,0.7
			c0.3,0.3,0.6,0.8,1,1.3c0.3,0.3,0.6,0.7,0.9,1.2c0.4,0.5,0.7,0.9,1.2,1.4s0.8,1,1.3,1.4c0.5,0.5,0.9,0.9,1.3,1.3
			c-0.5,0.2-1.3,0.4-2.3,0.5c-1,0.1-2.1,0.2-3.3,0.2h-3.3c-0.9,0-1.8-0.1-2.7-0.2c-0.9-0.1-1.7-0.4-2.4-0.7c0-0.2,0.1-0.5,0.1-0.8
			c0-0.3,0-0.5,0-0.8v-24.9h-5.9v24.1c0,0.6-0.1,1.2-0.2,1.6c-0.1,0.4-0.3,0.7-0.5,1c-0.2,0.2-0.5,0.4-0.9,0.5
			c-0.4,0.1-0.8,0.2-1.3,0.2h-84.4v-3.5c0-1.5-0.1-2.8-0.4-3.9c-0.3-1.1-0.7-2.1-1.1-2.9c-0.5-0.8-1-1.5-1.7-2
			c-0.6-0.5-1.3-0.9-2-1.2c-0.7-0.3-1.4-0.5-2.1-0.6c-0.7-0.1-1.4-0.2-2.1-0.2c-1.6,0-3.1,0.3-4.5,0.8c-1.3,0.6-2.5,1.3-3.4,2.2
			c-0.9,0.9-1.7,2-2.2,3.3c-0.5,1.2-0.8,2.5-0.8,3.9c0,1,0.2,2.1,0.6,3.1c0.4,1.1,1,2,1.9,2.9c0.9,0.9,2,1.6,3.4,2.1
			c1.4,0.5,3.1,0.8,5.2,0.8h2.8c-0.4,0.6-0.9,1.2-1.6,1.8c-0.7,0.6-1.5,1.1-2.4,1.5c-0.9,0.5-2,0.8-3.2,1.1s-2.5,0.5-3.9,0.6
			l0.5,4.8c1.9-0.2,3.8-0.5,5.6-1.1c1.8-0.5,3.4-1.2,4.8-2c1.4-0.8,2.7-1.8,3.7-2.9c1.1-1.1,1.9-2.4,2.4-3.8h86.8
			c1.1,0,2.1-0.2,2.9-0.5c0.8-0.3,1.5-0.8,2-1.3c0.8,0.6,1.8,1,2.8,1.3c1.1,0.3,2.4,0.5,3.9,0.5h3.1c1,0,2-0.1,2.9-0.2
			s1.8-0.3,2.7-0.5c0.8-0.2,1.7-0.5,2.4-0.8c0.8-0.3,1.4-0.6,2.1-0.9c0.5,0.2,1,0.5,1.7,0.8c0.7,0.3,1.5,0.5,2.3,0.8
			c0.9,0.2,1.8,0.5,2.8,0.6c1,0.2,2.1,0.2,3.3,0.2h7.9c1.1,0,2.1-0.2,2.9-0.5c0.8-0.3,1.5-0.8,2-1.3c0.8,0.6,1.8,1,2.8,1.3
			c1.1,0.3,2.4,0.5,3.9,0.5h11.5v-32.2h-5.9L851.9,597.9L851.9,597.9z M699.5,597.9h-3.2c-1.9,0-3.3-0.4-4.2-1.2
			c-0.9-0.8-1.3-2-1.3-3.4c0-0.7,0.1-1.4,0.4-2c0.2-0.6,0.6-1.1,1-1.6c0.4-0.4,0.9-0.8,1.4-1c0.5-0.2,1.1-0.4,1.7-0.4
			c0.5,0,1.1,0.1,1.6,0.3c0.5,0.2,1,0.6,1.4,1.1s0.7,1.3,1,2.3c0.2,1,0.4,2.2,0.4,3.7V597.9L699.5,597.9z M820.9,590.9
			c-0.1,0.4-0.4,0.8-0.7,1.3c-0.3,0.5-0.7,1-1.2,1.5c-0.5,0.5-1.1,1-1.9,1.6c-0.5-0.4-1-0.8-1.6-1.4c-0.6-0.6-1.1-1.2-1.6-1.8
			c-0.5-0.6-1-1.2-1.4-1.8c-0.4-0.6-0.8-1.1-1-1.5c0.4-0.2,0.9-0.4,1.4-0.5c0.5-0.2,1-0.3,1.5-0.4s1-0.2,1.4-0.3
			c0.5-0.1,0.9-0.1,1.2-0.1c0.6,0,1.2,0.1,1.7,0.2c0.5,0.1,0.9,0.3,1.3,0.5c0.4,0.2,0.6,0.5,0.8,0.7c0.2,0.3,0.3,0.6,0.3,0.9
			C821.1,590.2,821.1,590.5,820.9,590.9L820.9,590.9z"/>
	</g>
</g>
<g>
	<g>
		<path class="st1" d="M322.3,420.5l-32.6,32.6c-1.3,1.3-2.8,2.2-4.4,2.9c-1.5,0.6-3.2,1-4.9,1h-53.1c-3.5,0-6.8-1.4-9.3-3.9
			l-32.6-32.6c-1.7-1.7-2.3-4.1-1.8-6.3c0.3-1.5,1.2-2.8,2.5-3.8c18.8-14.3,42.4-22.8,67.8-22.8s49,8.5,67.8,22.8
			C324.9,412.8,325.2,417.6,322.3,420.5L322.3,420.5z"/>
		<g>
			<path class="st2" d="M277.5,433.9c-0.1-0.2-1.9-3.7-3.2-5.4c-6.5-9.2-17.1-14.4-28.1-14.4c-2.5,0-5,0.3-7.4,0.8
				c-2.5,0.6-4.9,1.4-7.3,2.5c-0.8-1.7-1.8-3.4-2.9-4.9c-1.5-2.1-3.2-4-5.1-5.7c-5.1-4.5-11.3-7.4-17.9-8.3
				c-1.3,0.6-2.6,1.2-3.8,1.9c1,0,2,0.1,3,0.2l-13.3,8.9c-0.5-0.6-0.9-1.1-1.3-1.7c-0.1-0.1-0.1-0.2-0.2-0.2
				c-0.6,0.4-1.2,0.9-1.8,1.3c0.1,0.1,0.1,0.2,0.2,0.3c1.5,2.1,3.1,3.9,5,5.6c6.3,5.7,14.6,8.9,23.1,8.9c5.1,0,14.1-3,14.1-3
				c0.9,1.9,2,3.7,3.2,5.4c0.2,0.3,0.5,0.6,0.7,1l1.3,1.6c5.4,6.3,12.9,10.3,20.9,11.5c1.7,0.2,3.4,0.4,5.1,0.4
				c4.9,0,9.9-1.1,14.7-3.3c0.2,0.5,0.5,1,0.8,1.5h0v0c0.6,1.2,1.3,2.3,2.1,3.4c1.5,2.1,3.2,4,5.1,5.7c2,1.7,4.1,3.2,6.4,4.5
				l1.7-1.7c-0.9-0.5-1.8-1-2.7-1.6l9.3-5.1l5.2-5.2l-16.4,9c-1.7-1.3-3.3-2.8-4.8-4.4l16.5-8.9c2.3,0.6,4.5,1.4,6.6,2.5l1.7-1.7
				c-5-2.7-10.6-4.1-16.2-4.1C286.9,430.8,282.1,431.8,277.5,433.9L277.5,433.9z M192.8,411l14.9-9.9c2.3,0.5,4.5,1.3,6.6,2.2
				l-17.2,11.5C195.6,413.7,194.2,412.4,192.8,411z M198.9,416.1l17.5-11.6c1.9,1.1,3.7,2.3,5.3,3.7l-16.1,11.2
				C203.3,418.5,201,417.4,198.9,416.1L198.9,416.1z M216.4,421.2c-2.8,0-5.6-0.4-8.3-1.1l15.2-10.5c1.3,1.3,2.5,2.7,3.6,4.2
				c1,1.4,1.9,2.9,2.7,4.6C225.3,420.2,220.8,421.2,216.4,421.2z M235.5,424.5c-1.1-1.6-2.1-3.3-3-5.1c4.4-2.1,9.1-3.1,13.7-3.1
				c2.4,0,4.7,0.3,7,0.8l-16.9,8.6C236.1,425.3,235.8,424.9,235.5,424.5z M237.8,427.3l18.5-9.4c2.4,0.8,4.7,1.8,6.8,3.1L243,432
				C241.1,430.6,239.4,429.1,237.8,427.3z M244.9,433.3l20.1-11c2,1.4,3.8,3,5.4,4.9l-17.9,9.4l0,0
				C249.9,435.8,247.3,434.7,244.9,433.3L244.9,433.3z M261.7,438c-2.1,0-4.2-0.2-6.2-0.6l16.3-8.5c0.2,0.3,0.5,0.6,0.7,0.9
				c1.1,1.6,2.1,3.3,3,5.1C271,437,266.3,438,261.7,438z M281.8,441.4c-0.2-0.3-0.4-0.6-0.6-0.9c-1-1.4-1.9-2.9-2.7-4.6
				c4.3-1.9,8.8-2.8,13.2-2.8c1.6,0,3.2,0.1,4.8,0.4C296.5,433.5,281.8,441.4,281.8,441.4z"/>
			<path class="st2" d="M324.1,414.5l-17.5,9.6c-1.7-1.3-3.3-2.8-4.8-4.4l16.6-9c1.7,0.5,3.4,1,5,1.8c-0.4-0.8-1-1.5-1.8-2
				c-0.8-0.6-1.7-1.3-2.6-1.9c-2.9-0.8-5.8-1.1-8.8-1.1c-4.7,0-9.6,1-14.1,3c-0.1-0.2-1.9-3.7-3.2-5.4c-6.5-9.2-17.1-14.4-28.1-14.4
				c-2.5,0-4.9,0.3-7.4,0.8c-2.5,0.5-4.9,1.4-7.3,2.5c-0.8-1.7-1.8-3.4-2.9-4.9c-0.3-0.4-0.5-0.7-0.8-1.1c-0.9,0.1-1.8,0.1-2.8,0.2
				c0.3,0.3,0.5,0.6,0.8,0.9l-14.7,8.2c-2.5-0.4-5-1.1-7.4-2.1l10.2-5.5c-2.5,0.5-5,1.1-7.5,1.7l-5,2.7c-0.5-0.2-1-0.5-1.4-0.8
				c-0.9,0.3-1.8,0.6-2.8,1c5.2,3.5,11.4,5.5,17.7,5.7c0.5,0,0.9,0,1.4,0c5.1,0,14.1-3,14.1-3c0.9,1.9,2,3.7,3.2,5.4
				c0.6,0.9,1.3,1.8,2,2.6l0.3,0.3c6.6,7.4,16,11.5,25.8,11.5c2.3,0,4.6-0.2,6.8-0.7c2.3-0.5,4.5-1.2,6.8-2.1
				c0.4-0.2,0.7-0.3,1.1-0.5c0.8,1.7,1.8,3.4,2.9,4.9c3.8,5.3,9,9.4,14.8,11.8l1.8-1.8c-2.1-0.8-4.1-1.8-5.9-3l15.6-8.6
				C324.3,416,324.3,415.2,324.1,414.5L324.1,414.5z M235,397.6c-0.5,0-1.1,0-1.6,0l12.4-6.9c0.9,1.3,1.7,2.7,2.4,4.1
				C243.9,396.7,239.4,397.7,235,397.6L235,397.6z M255.2,402.5c-0.4-0.5-0.8-1-1.1-1.5c-1.1-1.6-2.1-3.3-3-5.1
				c4.4-2.1,9.1-3.1,13.7-3.1h0c2.5,0,4.9,0.3,7.3,0.8L255.2,402.5L255.2,402.5z M256.6,404.1l18.4-9.7c0.6,0.2,1.1,0.4,1.7,0.6
				c1.8,0.7,3.6,1.6,5.3,2.7l-20.1,11C260,407.4,258.2,405.8,256.6,404.1L256.6,404.1z M263.9,410l20-10.9c1.9,1.4,3.6,3,5.2,4.8
				l-17.9,9.3C268.7,412.4,266.2,411.3,263.9,410z M280.3,414.4c-2,0-4-0.2-6-0.6l16.2-8.4c0.2,0.3,0.4,0.5,0.6,0.8
				c1.1,1.6,2.1,3.3,3,5.1C289.6,413.4,284.9,414.4,280.3,414.4L280.3,414.4z M299.7,417c-1-1.4-1.9-2.9-2.7-4.6
				c4.3-1.9,8.8-2.8,13.2-2.8c1.7,0,3.4,0.1,5.1,0.4l-14.8,8C300.2,417.7,300,417.3,299.7,417L299.7,417z"/>
		</g>
		
			<linearGradient id="SVGID_1_" gradientUnits="userSpaceOnUse" x1="181.9535" y1="585.4695" x2="283.5729" y2="544.3007" gradientTransform="matrix(1 0 0 -1 0 1002)">
			<stop  offset="0" style="stop-color:#0053E7"/>
			<stop  offset="0.12" style="stop-color:#004FDE"/>
			<stop  offset="0.32" style="stop-color:#0047C5"/>
			<stop  offset="0.58" style="stop-color:#00389D"/>
			<stop  offset="0.87" style="stop-color:#002567"/>
			<stop  offset="1" style="stop-color:#001C4D"/>
		</linearGradient>
		<path class="st3" d="M285.3,456c-1.5,0.6-3.2,1-4.9,1h-53.1c-3.5,0-6.8-1.4-9.3-3.9l-32.6-32.6c-1.7-1.7-2.3-4.1-1.8-6.3
			c7.7-2.2,15.8-3.3,24.1-3.3c16.9,0,32.7,4.7,46.2,12.9C266.8,431.6,277.7,442.8,285.3,456L285.3,456z"/>
	</g>
	<g>
		<path class="st4" d="M185.3,579.4l32.6-32.6c1.3-1.3,2.8-2.2,4.4-2.9c1.5-0.6,3.2-1,4.9-1h53.1c3.5,0,6.8,1.4,9.3,3.9l32.6,32.6
			c1.7,1.7,2.3,4.1,1.8,6.3c-0.3,1.5-1.2,2.8-2.5,3.8c-18.9,14.3-42.4,22.8-67.8,22.8s-49-8.5-67.8-22.8
			C182.7,587.1,182.4,582.3,185.3,579.4L185.3,579.4z"/>
		<g>
			<path class="st5" d="M218.7,546c-0.3,0.2-0.6,0.5-0.8,0.8l-1.8,1.8l2.6,11.7l-11.6-2.7l-2.6,2.6l18.4,4.4
				C222.9,564.5,218.7,546,218.7,546z"/>
			<path class="st5" d="M197.5,567.1l-2.7,2.7l2.6,11.5l-11.3-2.7l-0.8,0.8c-0.6,0.6-1,1.2-1.3,1.9l17.7,4.2L197.5,567.1
				L197.5,567.1z"/>
			<path class="st5" d="M243.8,585.8l-6.2-27.5l27.4,6.5l-4.9-21.9h-3.3l4,17.6l-27.4-6.5l6.2,27.5l-27.4-6.5l6.2,27.5l-20.1-4.8
				c4.2,2.4,8.6,4.5,13.1,6.4l11.2,2.7l-6.2-27.5L243.8,585.8L243.8,585.8z"/>
			<path class="st5" d="M258.7,579.5L286,586l-6.2-27.5l27.4,6.5l-0.2-0.8l-4.2-4.2l0.2,0.8l-27.4-6.5l6.2,27.5l-27.4-6.5l6.2,27.5
				l-27.4-6.5l3.3,14.8c1.1,0.2,2.2,0.3,3.3,0.5l-2.5-11l27.4,6.5L258.7,579.5L258.7,579.5z"/>
			<path class="st5" d="M323.9,582l-27.2-6.5l5.8,25.7c1-0.5,1.9-1,2.9-1.5l-4.5-20l23.3,5.5C324.4,584.2,324.3,583.1,323.9,582
				L323.9,582z"/>
			<path class="st5" d="M278.4,609.6c1-0.2,2.1-0.5,3.1-0.7l-1.8-8.1l15.5,3.7c1.7-0.7,3.3-1.3,4.9-2.1l-24.7-5.8L278.4,609.6
				L278.4,609.6z"/>
		</g>
		
			<linearGradient id="SVGID_00000177443221729795366670000001307361787770159011_" gradientUnits="userSpaceOnUse" x1="326.6274" y1="418.2067" x2="224.3396" y2="459.6474" gradientTransform="matrix(1 0 0 -1 0 1002)">
			<stop  offset="0" style="stop-color:#FF5122"/>
			<stop  offset="0.2" style="stop-color:#F6481E"/>
			<stop  offset="0.52" style="stop-color:#E12F14"/>
			<stop  offset="0.92" style="stop-color:#BD0803"/>
			<stop  offset="1" style="stop-color:#B60000"/>
		</linearGradient>
		<path style="fill:url(#SVGID_00000177443221729795366670000001307361787770159011_);" d="M222.3,543.9c1.5-0.6,3.2-1,4.9-1h53.1
			c3.5,0,6.8,1.4,9.3,3.9l32.6,32.6c1.7,1.7,2.3,4.1,1.8,6.3c-7.7,2.2-15.8,3.3-24.1,3.3c-16.9,0-32.7-4.7-46.2-12.9
			C240.8,568.3,229.8,557.2,222.3,543.9L222.3,543.9z"/>
	</g>
	<g>
		<path class="st7" d="M333.2,568.5l-32.6-32.6c-1.3-1.3-2.2-2.8-2.9-4.4c-0.6-1.5-1-3.2-1-4.9v-53.1c0-3.5,1.4-6.8,3.9-9.3
			l32.6-32.6c1.7-1.7,4.1-2.3,6.3-1.8c1.5,0.3,2.8,1.2,3.8,2.5c14.3,18.9,22.8,42.4,22.8,67.8s-8.5,49-22.8,67.8
			C340.9,571.1,336.1,571.4,333.2,568.5L333.2,568.5z"/>
		<path class="st8" d="M352.8,553.2c0.8-1.4,1.5-2.8,2.2-4.3c-5.9,3-12,5-17.2,6.2c-4.3,1-8,1.6-10.7,1.8c-0.4,0-0.8,0.1-1.1,0.1
			c3.7-3.8,7.1-7.9,10-12.2c1.1-0.3,6-1.7,11.9-4.4c4.3-1.9,9.1-4.5,13.5-7.8c0.5-1.6,1-3.3,1.4-5c-4.7,4.4-10.8,7.8-16,10.1
			c-3.2,1.5-6.1,2.5-8.2,3.2c3.2-5.2,5.9-10.6,8.2-16.3c1.4-0.8,4.7-2.8,8.7-5.7c3.3-2.4,7-5.5,10.4-9c0.1-1.6,0.2-3.1,0.3-4.7
			c-3.7,4.5-8.4,8.4-12.4,11.4c-2,1.5-3.8,2.7-5.3,3.6c2.3-6.4,4-13,5.2-19.8c1.2-0.8,4-2.8,7-5.3c1.8-1.5,3.6-3.3,5.2-5.1
			c-0.1-1.4-0.3-2.8-0.4-4.1c-0.4,0.5-0.7,1-1.2,1.5c-2.5,3-5.7,5.8-8.3,7.8c-0.6,0.5-1.2,0.9-1.7,1.3c0.8-5.8,1.3-11.7,1.5-17.7
			c0.9-0.7,2.6-2.3,4.4-4.7c0.8-1,1.6-2.1,2.3-3.3c-0.4-1.3-0.7-2.6-1.1-3.9c-1.1,2.1-2.3,3.9-3.5,5.4c-0.8,1-1.5,1.8-2.1,2.4
			c-0.1-9.6-1.1-19.1-3-28.3c-1-1.8-2-3.6-3.1-5.3c1.1,5.4,2.1,10.8,2.7,16.3c0.2,2.6,0.4,5.2,0.6,7.7c-1.2-1.5-2.8-3.5-4.5-6.1
			c-3.4-5-7.1-11.8-9.1-19.4l-2.8,0.7c2.1,8.3,6.2,15.6,9.8,20.8c3.6,5.2,6.6,8.4,6.7,8.4l0.1-0.1c0,1.8,0.1,3.6,0,5.4
			c0,4.1-0.2,8.1-0.6,12.1c-1.3-1.2-3.2-3-5.1-5.3c-3.3-3.9-6.7-9.1-7.6-14.2l-2.9,0.5c1.1,6.2,5,11.8,8.6,16
			c2.9,3.4,5.6,5.8,6.6,6.6c-0.7,5.9-1.7,11.7-3.1,17.3c-1.6-1.2-4-3-6.6-5.5c-4.3-4.1-9.2-9.7-11.8-16.1l-2.7,1.1
			c3,7.2,8.3,13.2,12.9,17.5c3.1,2.9,5.9,4.9,7.3,6c-1.8,6.6-4.1,13-6.9,19.1c-1.8-1.2-5.3-3.8-9-7.2c-2.4-2.3-5-4.9-7-7.7
			c-2.1-2.8-3.7-5.8-4.4-8.8l-2.8,0.7c0.9,3.6,2.8,7,5.1,10.1c3.5,4.7,7.9,8.7,11.4,11.6c2.4,1.9,4.4,3.3,5.4,4.1
			c-2.6,5.1-5.5,10-8.9,14.7c-3.5-2.2-8.9-6.3-13.8-11.1c-2.7-2.6-5.3-5.5-7.3-8.3c-2-2.8-3.4-5.6-3.9-8l-2.8,0.6
			c0.6,3,2.3,6,4.4,9.1c3.2,4.5,7.6,8.9,11.8,12.6c3.6,3.1,7.1,5.7,9.8,7.4c-2,2.6-4.2,5.1-6.5,7.5h0v0c-0.1,0.1-0.2,0.3-0.4,0.4
			l2.4,2.4c2.6-0.2,7.5-0.7,13.5-2.1C342.8,556.9,347.8,555.4,352.8,553.2L352.8,553.2z"/>
		
			<linearGradient id="SVGID_00000122679643343558726580000017170803745401299877_" gradientUnits="userSpaceOnUse" x1="337.1015" y1="573.1205" x2="296.3745" y2="473.6423" gradientTransform="matrix(1 0 0 -1 0 1002)">
			<stop  offset="0" style="stop-color:#009457"/>
			<stop  offset="0.17" style="stop-color:#008B53"/>
			<stop  offset="0.46" style="stop-color:#00724A"/>
			<stop  offset="0.81" style="stop-color:#004B3A"/>
			<stop  offset="1" style="stop-color:#003432"/>
		</linearGradient>
		<path style="fill:url(#SVGID_00000122679643343558726580000017170803745401299877_);" d="M297.7,531.4c-0.6-1.5-1-3.2-1-4.9v-53.1
			c0-3.5,1.4-6.8,3.9-9.3l32.6-32.6c1.7-1.7,4.1-2.3,6.3-1.8c2.2,7.7,3.3,15.8,3.3,24.1c0,16.9-4.7,32.7-12.9,46.2
			C322.1,513,311,523.9,297.7,531.4L297.7,531.4z"/>
	</g>
	<g>
		<path class="st10" d="M174.3,431.4l32.6,32.6c1.3,1.3,2.2,2.8,2.9,4.4c0.6,1.5,1,3.2,1,4.9v53.1c0,3.5-1.4,6.8-3.9,9.3l-32.6,32.6
			c-1.7,1.7-4.1,2.3-6.3,1.8c-1.5-0.3-2.8-1.2-3.8-2.5c-14.3-18.8-22.8-42.4-22.8-67.8s8.5-49,22.8-67.8
			C166.6,428.9,171.4,428.5,174.3,431.4z"/>
		<g>
			<path class="st11" d="M171.1,446.3L171.1,446.3c1.2,0,2.5-0.5,3.4-1.4c0.9-0.9,1.4-2.2,1.4-3.4c0-0.7-0.2-1.5-0.5-2.1l3.5-3.5
				l-2.2-2.2l-3.5,3.5c-0.7-0.3-1.4-0.5-2.1-0.5l0,0c-1.2,0-2.5,0.5-3.4,1.4c-0.9,0.9-1.4,2.2-1.4,3.4s0.5,2.5,1.4,3.4
				C168.6,445.9,169.8,446.3,171.1,446.3L171.1,446.3z"/>
			<path class="st11" d="M170,475.6c0.9,0.9,2.2,1.4,3.4,1.4l0,0c1.2,0,2.5-0.5,3.4-1.4c0.9-0.9,1.4-2.2,1.4-3.4
				c0-1.2-0.5-2.5-1.4-3.4c-0.9-0.9-2.2-1.4-3.4-1.4s-2.5,0.5-3.4,1.4c-0.5,0.5-0.9,1.2-1.2,1.9h-23.6c-0.3,1-0.5,2-0.8,3h24.4
				C169.1,474.4,169.5,475,170,475.6z"/>
			<path class="st11" d="M157.3,557.6l53.5-53.5v-4.3l-55.1,55.1C156.2,555.8,156.8,556.7,157.3,557.6z"/>
			<path class="st11" d="M210.6,470.9l-14.9,14.9h-53.4c-0.1,1-0.2,2-0.3,3.1h52.8l-47.4,47.4c0.4,1.1,0.7,2.1,1.1,3.2l62.3-62.3
				v-3.8C210.8,472.6,210.7,471.7,210.6,470.9L210.6,470.9z"/>
			<path class="st11" d="M158.9,459.9L158.9,459.9c1.2,0,2.5-0.5,3.4-1.4c0.6-0.6,1-1.3,1.2-2h25.1l5.4-5.4l-1.8-1.8l-4.6,4.6h-24
				c-0.2-0.8-0.6-1.6-1.3-2.2c-0.9-0.9-2.2-1.4-3.4-1.4l0,0c-1.2,0-2.5,0.5-3.4,1.4c-0.9,0.9-1.4,2.2-1.4,3.4s0.5,2.5,1.4,3.4
				C156.5,459.5,157.7,459.9,158.9,459.9L158.9,459.9z M157.6,453.8c0.4-0.4,0.9-0.6,1.4-0.6s1,0.2,1.4,0.6c0.4,0.4,0.6,0.9,0.6,1.4
				s-0.2,1-0.6,1.4s-0.9,0.6-1.4,0.6s-1-0.2-1.4-0.6s-0.6-0.9-0.6-1.4S157.2,454.1,157.6,453.8z"/>
			<path class="st11" d="M159,505.2c1.2,0,2.5-0.5,3.4-1.4c0.9-0.9,1.4-2.2,1.4-3.4s-0.5-2.5-1.4-3.4c-0.9-0.9-2.2-1.4-3.4-1.4l0,0
				c-1.2,0-2.5,0.5-3.4,1.4c-0.9,0.9-1.4,2.2-1.4,3.4c0,0.8,0.2,1.6,0.6,2.4l-12.4,12.4c0.1,1.1,0.3,2.1,0.5,3.1l13.7-13.7
				C157.4,505,158.2,505.2,159,505.2z"/>
		</g>
		
			<linearGradient id="SVGID_00000064323529613590864140000010981451134568142464_" gradientUnits="userSpaceOnUse" x1="171.0084" y1="432.1614" x2="210.8744" y2="529.9291" gradientTransform="matrix(1 0 0 -1 0 1002)">
			<stop  offset="0" style="stop-color:#7100E5"/>
			<stop  offset="0.13" style="stop-color:#6C00DC"/>
			<stop  offset="0.34" style="stop-color:#6000C3"/>
			<stop  offset="0.61" style="stop-color:#4C009C"/>
			<stop  offset="0.92" style="stop-color:#310065"/>
			<stop  offset="1" style="stop-color:#2A0056"/>
		</linearGradient>
		<path style="fill:url(#SVGID_00000064323529613590864140000010981451134568142464_);" d="M209.9,468.5c0.6,1.5,1,3.2,1,4.9v53.1
			c0,3.5-1.4,6.8-3.9,9.3l-32.6,32.6c-1.7,1.7-4.1,2.3-6.3,1.8c-2.2-7.7-3.3-15.8-3.3-24.1c0-16.9,4.7-32.7,12.9-46.2
			C185.4,486.9,196.6,476,209.9,468.5L209.9,468.5z"/>
	</g>
	<g>
		<path class="st13" d="M279.4,517.4c-8.4-5.1-18.5,0.1-25.6,5c-7.1-5-17.2-10.1-25.6-5c-0.7,0.4-0.4,0.4,0.1,0.3
			c0.6,0,1.6,0,1.9-0.1c4.5-0.1,13,3.4,19.4,7.8c0,0,0,0-0.1,0.1c-3.7,2.7-7.3,5.5-11.4,7.6l7,0c1.2,0,2.3-0.3,3.2-0.9
			c1.7-1.1,3.5-2.4,5.4-3.7c0,0,0.1,0,0.1-0.1c0,0,0.1,0,0.1,0.1c1.9,1.3,3.6,2.6,5.4,3.7c0.9,0.6,2.1,0.9,3.2,0.9l7,0
			c-4-2.1-7.7-5-11.4-7.6c0,0,0,0-0.1-0.1c6.4-4.4,14.9-7.9,19.4-7.8c0.2,0,1.3,0,1.9,0.1C279.9,517.8,280.1,517.8,279.4,517.4
			L279.4,517.4z"/>
		<path class="st13" d="M242.9,491.2c-3.4,3.4-5.7,7.4-6.8,11.5l9-7.2c-1.1,4.2-0.9,8.5,0.3,12.5l4.9-12c0.2,10,1.3,15.1,3.3,21.8
			c2-6.7,3.1-11.8,3.3-21.8l4.9,12c1.3-4,1.4-8.3,0.3-12.5l9,7.2c-1.1-4.1-3.3-8.1-6.8-11.5l11.9,2.8c-3-3.1-6.9-5.6-11.4-7.2
			l11.2-2.1c-4.2-1.5-8.8-2.2-13.6-1.9l9.4-6.7c-4.4,0.4-8.7,1.5-12.6,3.5l5.9-9c-3.4,1.4-6.5,3.5-9.1,6.2c-0.5-3.3-1.3-6.5-2.5-9.9
			c-1.2,3.4-2,6.5-2.5,9.9c-2.6-2.7-5.7-4.7-9.1-6.2l5.9,9c-4-2-8.3-3.1-12.6-3.5l9.4,6.7c-4.7-0.2-9.4,0.4-13.6,1.9l11.2,2.1
			c-4.5,1.7-8.3,4.2-11.4,7.2L242.9,491.2L242.9,491.2z"/>
	</g>
</g>
</svg>
