<?xml version="1.0" encoding="UTF-8"?>
<svg id="Layer_1" xmlns="http://www.w3.org/2000/svg" version="1.1" viewBox="0 0 1000 1000">
  <!-- Generator: Adobe Illustrator 29.0.0, SVG Export Plug-In . SVG Version: 2.1.0 Build 186)  -->
  <defs>
    <style>
      .st0 {
        fill: #8f771d;
      }

      .st1 {
        fill: #51692d;
        isolation: isolate;
      }

      .st2 {
        fill: #a48943;
      }
    </style>
  </defs>
  <g id="Layer_1-2">
    <g>
      <path class="st1" d="M375.5,486.6c5.9,5.6,12.6,10,19.8,13.6,7.2,3.7,14.7,6.5,22.3,8.9,9.4,3,19,5.4,28.5,7.9,7.8,2.1,15.7,4.1,23.4,6.7,5.4,1.8,10.7,3.9,15.7,6.5,5.1,2.7,9.8,6,13.6,10.4l.3.3c.2.2.4.2.6,0,.1-.1.1-.3.1-.4-.7-3-1.8-5.7-3.3-8.4-2.6-4.7-6.1-8.7-10.2-12.1-4.5-3.8-9.5-6.7-14.7-9.3-8.7-4.2-17.8-7.5-27.1-10.2-12.4-3.6-24.8-7.1-37.2-10.7-8.2-2.4-16.3-5.1-24.1-8.5-6.6-2.9-12.9-6.2-18.5-10.8-.3-.2-.5-.5-.9-.5-.3.7.2,1.1.5,1.6,3,5.4,6.8,10.3,11.3,14.6h0Z"/>
      <path class="st0" d="M381.7,463.9c6.9,5.2,14.5,9.1,22.4,12.4,8.7,3.6,17.8,6.4,26.9,8.8,9.5,2.6,19,5,28.4,7.6,7,1.9,13.9,4.1,20.5,7.1,5.3,2.3,10.3,5.1,14.8,8.8,1.6,1.4,3.1,2.9,4.5,4.5.1.1.3.2.4.2.3,0,.3-.3.3-.5-.5-2.1-1.3-4.2-2.2-6.3-2.6-5.7-6.6-10.3-11.3-14.3-4.7-3.9-9.9-7-15.4-9.6-7.2-3.4-14.6-6.4-22.3-8.6-13.3-3.9-26.6-7.6-39.9-11.5-8.6-2.5-17.2-5.3-25.5-8.8-6.6-2.9-13-6.3-18.7-10.9-.2-.2-.5-.3-.9-.6-.1,1.1.5,1.7.8,2.3,4.4,7.7,10.2,14.1,17.2,19.3h0Z"/>
      <path class="st0" d="M549.3,475c-9,2.8-17.7,6.4-26,11.1-5.3,3-10,6.7-14.2,11.2-3.9,4.3-6.6,9.4-8.2,15,0,.2,0,.4-.1.6,0,0,0,.2,0,.2.1,0,.3.1.4,0,.2-.1.4-.3.5-.4,4.3-5,9.7-8.5,15.6-11.4,5.7-2.8,11.8-5.1,17.9-6.9,8-2.3,16.2-4.5,24.3-6.6,8.4-2.2,16.8-4.4,25.1-7.2,8.9-3,17.6-6.4,25.7-11.1,7.1-4.1,13.5-9,18.9-15.2,2.8-3.2,5.3-6.7,7.3-10.5.2-.4.7-.8.4-1.4-.2,0-.3,0-.4.1-.3.2-.6.4-.9.6-3.9,3.1-8.1,5.6-12.5,7.8-5.6,2.8-11.4,5.1-17.4,7.2-9.1,3.2-18.5,5.7-27.7,8.4-9.6,2.8-19.3,5.5-28.9,8.4h0Z"/>
      <path class="st1" d="M626.6,485.1c3.9-4,7.3-8.4,9.9-13.2.3-.5.8-.9.4-1.7-.3.2-.6.4-.9.6-5.4,4.3-11.4,7.6-17.7,10.4-7.7,3.4-15.7,6.1-23.7,8.4-13.2,3.9-26.4,7.7-39.7,11.5-9.5,2.7-18.8,6.1-27.6,10.7-3.6,1.8-7,3.9-10.2,6.2-4.3,3.2-8.2,6.8-11.2,11.2-2.2,3.2-3.8,6.6-4.8,10.4-.4.4-.5.8-.4,1.4,0,.3.3.3.5.3.3-.1.5-.4.5-.6,5.1-5.6,11.4-9.5,18.2-12.6,5-2.2,10.1-4.1,15.3-5.6,7.5-2.2,15.1-4.1,22.6-6.2,8.4-2.3,16.8-4.4,25.1-7.1,7.9-2.6,15.7-5.5,23.2-9.4,7.5-3.9,14.4-8.6,20.4-14.6h0Z"/>
      <path class="st1" d="M427.3,353.8c.3-.4.6-.8.8-1.3,1.2-1.9,2.4-3.9,3.6-5.9,1.3-2.1,2.7-4.2,4.3-6.2,3.8-4.7,8.6-7.8,14.5-9.2,1.6-.4,3.2-.6,4.8-.9,3.9-.6,7.7-1.3,11.6-1.5,6-.4,11.9-.6,17.9-.8,11.4-.4,22.8.2,34.1,2.1.3.1.5.3.8.4.3,0,.6.1.7-.3,0-.3-.2-.5-.5-.6-4.1-3.8-8.7-6.7-14-8.7-5.1-1.9-10.4-2.7-15.8-2.7-7.4,0-14.7.3-22.1.8-5.1.3-10.1,1-15.1,2.3-5.4,1.4-10.5,3.5-15,6.8-3.8,2.8-6.8,6.3-8.7,10.7-1.8,4.3-2.5,8.8-2.5,13.4s0,.5,0,.7c.1.3,0,.8.5.9h.1Z"/>
      <path class="st1" d="M497.2,451.4c-3.7-.2-7.4-.5-11-1.2-1.9-.4-3.9-.8-6.1-1.2.5,1.1,1.1,1.8,1.8,2.4,2.7,2,5.4,4.1,8.4,5.7,2.7,1.5,5.6,2.7,8.7,3.1,1.1.2,2.4.2,3.5.4,5.7.6,11.4.9,17.2,1,4.9.2,9.7-.2,14.6-.7,5.1-.6,10.2-1.4,15.2-2.8,5-1.4,9.7-3.4,13.9-6.7,4.7-3.7,7.7-8.4,9.3-14.2.7-2.8.9-5.6,1.2-8.5,0-.9.4-1.8-.3-2.7-.8.5-1.1,1.4-1.6,2.1-1.7,2.8-3.3,5.6-5.2,8.3-1.9,2.7-4,5.1-6.4,7.3-2.9,2.5-6.2,4.3-10,5-3,.6-6.1,1.1-9.1,1.6-3.2.5-6.4.8-9.7,1-4.5.4-9,.7-13.5.8-7,.1-14-.4-21-.6h0Z"/>
      <path class="st0" d="M484.4,471.9c3.4,2.2,7.1,4,11,5.1,8.4,2.4,16.4,1.4,23.6-3.6,2-1.4,3.8-3,5.7-4.5.4-.3.8-.6.9-1.2-.6-.3-1.1-.1-1.7,0-2,.5-4,1-6,1.4-4,.8-7.9,1.6-12,1.5-5-.1-9.6-1.5-13.7-4.4-8.8-6.2-16.8-13.2-24.5-20.7-4.2-4.2-8-8.6-12-13-4-4.4-7.6-9-10.7-14.1-.3-.6-.6-1.2-1.3-1.6-.3.8-.5,1.6-.4,2.4.5,3.7.9,7.5,2,11.1.9,3,2.1,5.9,4.1,8.3,5.2,6.5,10.5,12.9,16.5,18.8,5.6,5.5,11.7,10.3,18.3,14.5h0Z"/>
      <path class="st0" d="M422.6,414.4s.4.1.6.2c0-.1.1-.2.1-.3,0-.3-.1-.6-.2-.8-1.3-4.9-2.4-9.7-2.7-14.8-.4-5.7.6-11,4-15.7,3.4-4.8,6.8-9.4,10.5-14,2.9-3.6,6-7.1,9.4-10.2,3.1-2.9,6.2-5.7,9.3-8.5,3.9-3.5,8-6.8,12.2-9.9,2.8-2,5.5-4.2,8.3-6.3,0,0,.2,0,.2,0,.2-.1.4-.3.4-.4s-.2-.4-.4-.4c-.8,0-1.7-.1-2.5.4h0c-1.8,0-3.5.3-5.3.6-6.3.8-11.9,3.1-16.8,7.2-7.1,6-13.9,12.3-20.3,19.1-3,3.1-5.8,6.5-8.3,10.1-3.1,4.6-5.8,9.4-7.4,14.7-1.5,5-1.7,10-.2,15.1,1.6,5.5,4.7,10.1,8.9,14Z"/>
      <path class="st1" d="M440.9,379.2c.4-3,.8-6,1.1-9,0-.3.3-.7-.2-.9-.2,0-.3.1-.4.2-2.1,2.7-4.2,5.3-6.1,8.2-2.4,3.7-4,7.7-4.6,12.1-.3,2.2-.5,4.4-.6,6.6-.4,8.9-.7,17.8,0,26.8.4,5.7,1.4,11.4,3.1,16.9,1.2,3.7,2.7,7.4,4.8,10.6,5.7,8.6,16,13.3,26.3,11.9-.4-.7-1-.9-1.5-1.2-1.8-1.1-3.7-2.2-5.5-3.3-2.7-1.7-5.2-3.6-7.5-5.7-4-3.7-6.6-8-7.4-13.5-.4-3-1-6-1.5-8.9-1.1-6.6-1.8-13.3-1.8-20s.2-8.7.3-13c.2-5.9.7-11.8,1.6-17.6h0Z"/>
      <path class="st1" d="M539.5,319.2c3,1.6,5.9,3.4,8.5,5.5,6.5,5.3,10.7,11.9,12,20.3.4,2.8.6,5.7.9,8.6.5,6.7.9,13.4,1,20.1.3,12-.8,23.8-2.9,35.6,0,.3-.2.6.1.8.2,0,.3,0,.4-.2,2.1-2.7,4.3-5.4,6.2-8.4,3-4.9,4.8-10.2,4.9-16.1,0-1.3.1-2.5.1-3.8.4-10.6.4-21.2-.6-31.8-.6-6.7-2.7-13-6.1-18.8-3.6-6.2-8.9-10.3-15.7-12.6-3.4-1.1-6.9-1.5-10.5-1.1-.1,0-.3.2-.3.2,0,.1,0,.3.1.4.6.4,1.3.8,1.9,1.1h0Z"/>
      <path class="st0" d="M572.1,404c-5.2,6-10.5,11.8-16,17.5-5.2,5.3-10.5,10.4-16.4,14.9-4,3.1-8.2,6.1-12.2,9.1-.3.2-.6.3-.7.5,0,.4.3.4.6.4.8,0,1.6,0,2.4-.4h0c2.6,0,5.1-.5,7.7-1,5.5-1.1,10.5-3.6,14.6-7.4,2-1.8,4-3.7,6.1-5.5,6.6-6.1,12.9-12.3,18.8-19,4.4-5.1,7.7-10.8,9.7-17.2.9-3.2,1.6-6.5,1.4-9.8-.2-3.3-.9-6.6-2.2-9.7-1.4-3.3-3.2-6.3-5.9-8.8-.4-.4-.9-.8-1.4-1.1-.1,0-.4-.1-.4,0-.1.2-.2.4-.2.5,0,.4.2.8.3,1.3.9,3.3,1.7,6.7,2.1,10.2.6,5.6,0,11-2.2,16.3-1.5,3.5-3.6,6.6-6.1,9.5h0Z"/>
      <polygon class="st0" points="505.7 367.8 505.7 367.9 505.7 367.9 505.7 367.8"/>
      <path class="st0" d="M491,350.9c-1.2.6-2.4,1.3-3.3,2.1-2.7,2.4-4.1,5.3-3.4,8.9,1.6-1.1,2.8-2.5,3.4-4.3.4,0,.7-.1.8-.6h0c0-.1,0-.2.1-.3.4-.2.4-.5.4-.8h0c.5,0,.8.3.8.8h0s-.4.3-.4.5c-.4.2-.5.5-.5.9-.4.2-.5.6-.4,1h0c0,.4,0,.9-.2,1.3-.5,1.7-.2,3.3.2,5,0,.4.2.8.6.7.4,0,.6-.4.7-.8,0-.2,0-.4.2-.6.2-.6-.2-1.8,1.3-1.3,0,0,.3-.2.3-.3,0-.4,0-.8-.1-1.1-.5-1-.7-1.9.4-2.7.2-.2.2-.6.2-.8.2,0,.5,0,.6-.2.5-1,1.3-1.8,1.6-2.9.4-.2.5-.5.5-.9h.5c0,.1,0,.2,0,.3v1c-.3,0-.4.3-.4.5h0c0,.1,0,.2-.2.3-.5.3-.4.8-.4,1.3h0s-.3.3-.4.5c-.4.3-.5.6-.4,1,.1.3.3.5.4.7h0c-.3.6.6.8.5,1.2-.1.6-.6,1-.6,1.6,0,.5-.1,1,.2,1.5.2.4.6.8.5,1.2-.1.9,0,1.5.8,2,.5.3,0,1.1.7,1.6.6-1.1.8-2.3.5-3.4-.3-.9,0-1.3.5-1.9.4-.6.7-.6,1,0,.9,0,1.1.6,1,1.3v.7c.2,5.7.2,11.5,0,17.2,0,.8,0,1.6-.2,2.4-.3,1.5-.6,2.9-.3,4.3.1.5,0,1.2-.3,1.7-.3.8-.4,1.5-.2,2.4.3.9,0,1.9-.4,2.8-.3.6-.7,1.1-1,1.7-.2.4-.5.7-.2,1.3,2.7,0,5.3,0,8,0,.2-.7-.2-1-.4-1.4-.5-.9-.9-1.8-1.4-2.8-.2-.3-.3-.8-.2-1,.5-1.3.4-2.4-.2-3.6-.3-.5-.2-1.1,0-1.7.2-.5.2-1,.1-1.5-.7-3.1-.6-6.3-.7-9.5-.2-4.3,0-8.7.1-13.1,0-.8.3-1.2,1.1-1.3.4,0,.7-.4.9,0,.3.5,1,.6.7,1.5-.6,1.1,0,2.3.2,3.4,0,.1.2.3.3.3s.3-.1.3-.2c.2-.4,0-1,.5-1.4.3-.4,1-.5.7-1.2-.3-.6,0-1.2.3-1.7.5-.7.4-1.4.2-2-.1-.4-.3-.7-.4-1-.1-.3-.1-.5.2-.7.3-.2.3-.5.2-.7-.2-.3-.4-.6-.6-.9-.2-.3,0-.4.2-.5.8-.2.2-.6.1-.9,0-.1.1-.3.2-.4.6-.5.7-.5,1,.1.2.4.4.7.9.7,0,.3,0,.7.2.8,1.2.8.8,1.8.5,2.9,0,.2-.1.4-.1.6s.2.4.4.4c.6-.2.8,0,.8.6.1.8.1,1.8,1,2.2.1-.1.3-.2.3-.3.2-.3.3-.5.3-.8.6-2.1.5-4.3,0-6.5.1-.4.1-1,.7-.3.1.1.3.1.4.2h0c.8.4.7,1.4,1.4,1.9.6.5,1.3.9,1.9,1.6.5-3.7-1-7.3-4-9.4-1.1-.7-2.2-1.4-3.4-2.1-.3-.2-.7-.3-.4-.9.7,0,1.4,0,2.1,0,1.8.2,3.4.6,4.5,2.2.2.5.4,1,.9,1.6,0-1.2.3-2.1-.4-3h0c-.6-1.9-2.2-2.5-3.8-3-1.9-.6-3.9-.6-5.9-.4-.2-.2-.4-.4-.6-.6h0c.5-.6,1-1,1.7-1.1,1.2-.2,2.4-.3,3.6-.4.2.3.4.6.6.9,0,0,.2.1.2.1.1-.1.2-.2.2-.3,0-.3,0-.6-.3-.7h0c-.7-1.2-1.8-1.7-3.1-1.8-1.7-.2-3.3-.2-4.8.9-.6.4-.8,1.3-1.7,1.3-.3-.6-.7-1.3-1-1.9-.2-.3-.2-.7-.3-1v-.8c0-.2-.2-.4-.5-.3-.1,0-.3.2-.3.3v.8h0c0,1.1-.9,1.8-1.1,2.8,0,.4-.5.3-.7,0-.6-.7-1.1-1.4-2-1.7-2.5-.9-4.8-.6-6.8,1-.3.2-.5.6-.5.9,0,.2,0,.3.1.4,0,0,.3,0,.4,0,.4-.6.9-.7,1.5-.6.9.1,1.9.1,2.8.4.7.2,1.4.6,1.8,1.2.1.2.2.5.1.6,0,.1-.4.2-.6.2-2.7-.9-5.3-.3-7.7.7-1.9.8-2.7,2.3-2.4,4.5.9-1.1,1.8-2.2,3.2-2.7,1.4-.4,2.8-.5,4.4-.3-.2.8-.8.9-1.3,1.2h0Z"/>
      <path class="st0" d="M547.8,383.4c0-1.7-1.3-3.1-3-3.2-1.8,0-3.3,1.3-3.3,3.1s1.3,3.1,3,3.2c1.8,0,3.3-1.3,3.3-3.1h0Z"/>
      <path class="st0" d="M456.6,380.3c-1.8,0-3.2,1.4-3.1,3.2,0,1.8,1.5,3.1,3.3,3,1.7-.1,3-1.5,2.9-3.2,0-1.7-1.5-3-3.1-3h0Z"/>
      <path class="st0" d="M475.1,385.8c0-1.5-1.5-2.9-3.1-2.8-1.5.1-2.7,1.4-2.7,2.9,0,1.6,1.4,2.9,3,2.8,1.5-.1,2.8-1.4,2.7-2.9Z"/>
      <path class="st0" d="M467.3,384.5c0-1.6-1.3-2.8-2.8-2.8s-3,1.4-2.9,3c0,1.6,1.4,2.8,3.1,2.8,1.5,0,2.7-1.4,2.7-2.9h0Z"/>
      <path class="st0" d="M531.8,385.6c0-1.6-1.2-2.8-2.8-2.8s-3,1.2-3,2.8,1.3,2.9,2.8,2.9c1.5,0,3-1.2,3-2.9h0Z"/>
      <path class="st0" d="M539.7,384.2c0-1.7-1.4-3-3-2.9-1.6.1-2.7,1.4-2.7,3,0,1.6,1.3,2.7,2.9,2.7s2.8-1.3,2.8-2.8Z"/>
      <path class="st0" d="M545.3,398.9c-1.4,0-2.5,1.3-2.4,2.6,0,1.4,1,2.3,2.4,2.3s2.6-1.1,2.6-2.5-1.2-2.5-2.6-2.5Z"/>
      <path class="st0" d="M453.4,401.6c0,1.4,1.2,2.6,2.5,2.5,1.3,0,2.4-1.1,2.4-2.4,0-1.5-.9-2.5-2.4-2.6-1.5,0-2.5,1-2.6,2.5h0Z"/>
      <path class="st0" d="M523.8,387.7c0-1.4-1.3-2.6-2.6-2.5-1.4,0-2.4,1.3-2.4,2.7.1,1.4,1.1,2.2,2.5,2.2,1.3,0,2.4-1.1,2.4-2.4h0Z"/>
      <path class="st0" d="M482.3,387.8c0-1.5-1.2-2.4-2.6-2.3-1.3.1-2.3,1.2-2.2,2.5,0,1.3,1.2,2.4,2.5,2.4s2.5-1.2,2.5-2.6h0Z"/>
      <path class="st0" d="M534.2,401.2c-.1,1.3.9,2.5,2.2,2.6s2.5-.9,2.6-2.2c.1-1.3-.9-2.4-2.2-2.6-1.2-.2-2.5,1-2.6,2.2h0Z"/>
      <path class="st0" d="M462.6,401.6c0,1.3,1.2,2.4,2.5,2.4,1.2,0,2.2-1.1,2.2-2.3s-1-2.4-2.4-2.5c-1.4,0-2.4,1-2.4,2.4h0Z"/>
      <path class="st0" d="M474,401.5c-1-.1-2,.7-2.1,1.8,0,1,.9,2,1.9,2.1.9,0,1.8-.8,1.9-1.7.1-1.1-.6-2-1.7-2.1h0Z"/>
      <path class="st0" d="M487.3,388.9c-1-.1-2,.8-2,1.9s.9,1.9,1.9,1.9,1.7-.9,1.8-1.9c0-1-.7-1.8-1.7-1.9Z"/>
      <path class="st0" d="M512.1,390.5c0,1,.9,2,1.9,1.9,1,0,1.9-1,1.8-2-.1-1-.9-1.7-1.9-1.7s-1.8.9-1.9,1.8h0Z"/>
      <path class="st0" d="M525.6,403.3c0,1,.8,1.8,1.9,1.8s1.9-.9,1.9-2c0-1-.8-1.8-1.9-1.8s-1.9.8-1.9,2Z"/>
      <path class="st0" d="M507.1,393.1c-.8,0-1.6.7-1.6,1.5s.8,1.7,1.7,1.6c.8,0,1.6-.8,1.6-1.5s-.8-1.6-1.7-1.6Z"/>
      <path class="st0" d="M494.2,393.2c-.8,0-1.6.7-1.7,1.4-.1.7.6,1.6,1.4,1.7.9.2,1.7-.6,1.8-1.5,0-.8-.6-1.6-1.5-1.6Z"/>
      <path class="st0" d="M519.2,405.1c-.6.1-1.1.7-1.1,1.4,0,.7.6,1.3,1.3,1.3s1.4-.7,1.4-1.4c0-.7-.8-1.3-1.5-1.3Z"/>
      <path class="st0" d="M483.2,406.6c0-.7-.6-1.3-1.3-1.3s-1.3.6-1.4,1.2c0,.7.7,1.4,1.4,1.4.6,0,1.3-.7,1.2-1.4h0Z"/>
      <path class="st0" d="M475.5,312.5c.4,0,.7-.1,1-.4h0c2.5-.5,5-1.1,7.6-1.6,3.1-.7,6.2-1.1,9.4-1.2,5.6,0,10.6,1.5,15.2,4.7,4.8,3.4,9.5,7,13.9,11,3.4,3.2,6.7,6.4,10.1,9.6,5.4,5.1,10.5,10.4,15.2,16.1,2.9,3.4,5.6,7,8.2,10.8.3.4.4,1,1.1.8.1-1.8-.1-3.5-.4-5.3-.8-5.5-2.5-10.6-5.3-15.4-2.1-3.6-4.8-6.7-7.6-9.7-3.9-4.1-8.1-7.9-12.2-11.9-3.9-3.7-7.9-7.1-12.3-10.1-4.9-3.3-10-5.9-15.7-7.3-3.8-.9-7.6-1.2-11.4-.5-6.6,1.1-12,4.7-16.5,9.5-.1.1-.3.2-.4.3s-.2.3-.2.4c0,.3.3.3.5.3h0Z"/>
      <path class="st0" d="M454.2,393.3c.5.3,1,.3,1.5.2h0c1.4.1,2.8.3,4.2.4,5.7.4,11.2,1.6,16.7,3.3,7.1,2.3,13.6,5.7,19.2,10.7.5.4,1.1.7,1.3,1.5-.2.2-.3.4-.4.5-2.4,2.2-4.8,4.4-7.1,6.6-.3.3-.7.6-1,.8-.4.3-.7.2-.9-.2-.3-.8-.6-1.7-.9-2.5-.8-1.8-2.9-3.1-4.8-3-1.4,0-2.3.8-2.9,2.1-.6,1.3-.2,2.5.6,3.5.8,1,1.9,1.3,3.2.9.4-.1.8-.3,1.3-.5.8-.3,1.4.2,1.4,1s-.3,1.1-.7,1.6c-.7.7-1.5,1.1-2.4,1.6-.8.4-1.5.6-2.2-.2-.3-.3-.6-.4-.9-.5-1.7-.7-3.4,0-4.2,1.8-.8,1.7-.2,3.6,1.4,4.3.9.4,1.8.6,2.8.4,1.9-.3,3.7-.9,5.4-1.9,1-.6,1.9-1.3,2.9-2,.6-.4.8-.4,1.3.2,1.3,1.6,2.9,2.7,4.9,3.3,1.2.4,2.4.2,3.4-.3,2.4-1.1,2.9-3.8,1-5.6-1.6-1.6-4.1-1.1-5.1.9-.1.2-.1.5-.3.6s-.4.3-.6.3c-.5,0-1-.2-1.3-.7-.2-.4,0-.7.2-1,.3-.4.6-.8.9-1.3,2.5-2.9,5.6-5.1,8.6-7.6,2,1.6,3.9,3.1,5.7,4.7.9.8,1.8,1.7,2.6,2.7.4.5.8,1.1,1.1,1.7.3.4.1.8-.3,1.2-.3.3-.7.5-1.2.4-.5-1.5-.6-1.8-1.1-2.1-1.4-.9-3.6-1.3-5.1.8-1.1,1.7-.8,3.6,1,4.8,1.1.7,2.3.9,3.6.6,1.1-.3,2.1-.7,3-1.4.8-.6,1.5-1.2,2.1-1.9.6-.7.7-.7,1.5-.2,1,.7,1.9,1.4,2.9,2,1.2.7,2.5,1.3,3.9,1.6,1.4.3,2.8.3,4.1-.3,1.5-.6,2.2-2.1,1.8-3.6-.5-1.8-2.6-2.9-4.4-2.4-.6.2-1,.5-1.5.9-.3.3-.7.3-1,.2-1.3-.5-2.4-1.1-3.3-2.1-.4-.5-.6-.9-.5-1.6.2-.7.5-1,1.2-.7.8.4,1.7.6,2.6.5,1.7-.2,3-1.6,3-3.3,0-1.7-1.5-3.3-3.2-3.3-2.1-.1-3.7.9-4.7,2.8-.4.8-.6,1.7-.9,2.5-.3.6-.6.7-1.2.3-2.8-2.6-5.6-5.2-8.4-7.7.2-.7.6-.9,1-1.3,1.5-1.2,3-2.5,4.5-3.6,5.6-4,11.8-6.6,18.4-8.4,5.7-1.6,11.6-2.3,17.5-2.7.5,0,1,.2,1.5-.2-.5-.4-1-.3-1.5-.2h0c-.6-.1-1.3-.3-1.9-.4-5.5-.7-11-.4-16.5.5-7.5,1.4-14.5,4-20.8,8.2-1.5,1-3,2.1-4.4,3.3q-1,.8-2.2,0c-1.9-1.4-3.9-2.7-5.9-3.9-4.4-2.8-9-4.9-14.1-6.3-4.7-1.3-9.4-2-14.2-2.2-3.3-.2-6.6,0-9.9.7-.5,0-1-.1-1.5.2h0Z"/>
      <path class="st0" d="M505.7,367.8h0s0,0,0,.1h0c0-.1,0-.1,0-.1Z"/>
      <path class="st0" d="M506,368.2s-.1-.2-.2-.2c0,.2.1.3.2.4,0,0,.1-.2,0-.2h0Z"/>
      <path class="st1" d="M219.9,568.9c2.8,0,4.8-2.2,4.8-4.8s-2-4.8-4.8-4.8-4.8,2.2-4.8,4.8,2,4.8,4.8,4.8Z"/>
      <path class="st1" d="M206.4,568.9c2.7,0,4.8-2.2,4.8-4.8s-2.1-4.8-4.8-4.8-4.8,2.2-4.8,4.8,1.9,4.8,4.8,4.8Z"/>
      <path class="st1" d="M392.7,627.8c-2.7,0-4.9,2.1-4.9,4.8s2.2,4.9,4.9,4.9,4.9-2.1,4.9-4.9-2.2-4.8-4.9-4.8Z"/>
      <path class="st1" d="M574.8,564.1c0,2.7,2,4.8,4.8,4.8s4.8-2.2,4.8-4.8-2-4.8-4.8-4.8-4.8,2.2-4.8,4.8Z"/>
      <path class="st1" d="M561.3,564.1c0,2.7,1.9,4.8,4.8,4.8s4.8-2.2,4.8-4.8-2.1-4.8-4.8-4.8-4.8,2.2-4.8,4.8Z"/>
      <path class="st1" d="M505.3,606.9v-48.1l-12.5,2.4c4.1,1.3,4.2,2,4.2,4.2v41.3c0,5.6-2.2,9-7.6,9h-4.3c-4.2,0-7.6-4-9.1-8.4.2-1,.3-2.2.3-3.4,0-8.7-6.1-20.2-17.6-20.2s-16.3,8.7-18.6,17.5c-1.1,4.7-2.7,10.4-5.5,13.1-1.1.9-2.7,1.2-3.6,1.4h-14.2c-.3-17.5-9.5-35.9-24.5-35.9s-13.9,5.2-17.2,10.6c-1.4,2.2-2.4,2.9-3.8,3.7l3.9,7.1c2.9-9.7,8.4-18,16.8-18s15.1,11.2,15.4,32.6h-45.6c-4.2,0-7.6-4-9.1-8.4.2-1,.3-2.2.3-3.4,0-8.7-6.1-20.2-17.6-20.2s-16.3,8.7-18.5,17.5c-1.2,4.7-2.7,10.4-5.6,13.1-1.1.9-2.7,1.2-3.6,1.4h-26.6c-3,0-4.3-.6-5.6-1.6,8.2-4.4,17.7-10.3,17.7-19.5s-8.4-16.7-20-16.7-14.1,2.7-21.4,7.1c-.7.4-.9.7-1.2.8.3.3,1.2,1.6,2,2.7,1.5,2,4.8,6.2,6.4,9.3,5,10.1,6.8,13,9.5,16-2.5,1.5-8.3,2-9.1,2h-24.4c-4.4-.4-4.9-5-4.9-7.6v-24.5c0-2,.1-4.4.7-6.9h-4.7c-.7.7-.5,1-.7,1.4-.4,1.1-.8,2.4-1,2.4,0,0-.6-.4-1.6-1-2.2-1.4-5.7-3.8-11.1-3.8-11.9,0-19.3,10.7-19.3,21.5s7.5,21.9,17.4,21.9,12.3-5.7,13.7-9.8c0,8.6,5.3,9.7,11.7,9.8h26.6c4.9,0,7.3-.9,10.1-2.5,0,.1.1.1.1.1,1.4.9,3.7,2.4,10.7,2.4h25.1c5,0,7.7-1.6,9.9-4,2.8,3.6,6.8,8,15.4,8s15-4.7,17.8-10.4c3.2,4.2,6.8,6.3,13,6.3h67.2c5,0,7.7-1.6,9.9-4,2.7,3.6,6.8,8,15.4,8s15-4.7,17.8-10.4c3.2,4.2,6.8,6.3,13,6.3h4.4c8,0,13.9-4.3,13.9-12.3v.2ZM221.1,607.4c-1.5,5-5.6,8.5-10.2,8.5s-10-4.2-10-18.1,3.4-18.8,10.8-18.8,10.5,9,10.5,17-.2,8.6-1,11.4ZM265.6,598.6c-1.9-4.2-4.2-8.4-7.6-12.4,4.9-2.7,10.3-4.4,15.4-4.4s10.6,5.2,10.6,12.4-4.4,12.5-11.1,16.7c-2.5-2.7-5.3-8.3-7.3-12.3h0ZM333.3,619.9c-5.9,0-10.1-4.8-12.5-7.8-.1-.2-.3-.5-.5-.6,1.8-3.4,2.7-6.9,3.5-10.1l.2-.6c1.9-7.4,3.8-14.2,9.8-14.2h.4c6.9.3,10.2,8.7,10.2,17.7s-5.1,15.6-11,15.6h0ZM456.5,619.9c-6,0-10.1-4.8-12.5-7.8-.1-.2-.4-.5-.5-.6,1.8-3.4,2.7-6.9,3.5-10.1v-.6c2.1-7.4,4-14.2,10-14.2h.4c6.9.3,10.2,8.7,10.2,17.7s-5.1,15.6-11,15.6h0Z"/>
      <path class="st1" d="M718.6,603.9c0-8.7-6.1-20.2-17.7-20.2-13.5.1-16.5,8.8-18.6,16.7-2.2,7.7-4.3,15.3-15.2,15.3h-26.1c-3,0-4.3-.6-5.6-1.6,8.2-4.4,17.7-10.3,17.7-19.5s-8.4-16.7-20-16.7-14.1,2.7-21.4,7.1c-.7.4-.9.7-1.2.8.3.3,1.2,1.6,2,2.7,1.5,2,4.8,6.2,6.4,9.3,5,10.1,6.8,13,9.5,16-2.5,1.5-8.3,2-9.1,2h-24.4c-4.4-.4-4.9-5-4.9-7.6v-24.5c0-2,.1-4.4.7-6.9h-4.7c-.7.7-.5,1-.7,1.4-.4,1.1-.8,2.4-1,2.4,0,0-.6-.4-1.6-1-2.2-1.4-5.7-3.8-11.1-3.8-11.9,0-19.3,10.7-19.3,21.5s7.5,21.9,17.4,21.9,12.3-5.7,13.7-9.8c0,8.6,5.3,9.7,11.7,9.8h26.6c4.9,0,7.3-.9,10.1-2.5,0,.1.1.1.1.1,1.4.9,3.7,2.4,10.7,2.4h30.1c4.9,0,8.3-1.6,10.6-4,3,3.5,6.9,8,15.6,8,13.4,0,20-10.2,20-19.3h0ZM580.8,607.4c-1.5,5-5.6,8.5-10.2,8.5s-10-4.2-10-18.1,3.4-18.8,10.8-18.8,10.5,9,10.5,17-.2,8.6-1,11.4ZM625.3,598.6c-1.9-4.2-4.2-8.4-7.6-12.4,4.9-2.7,10.3-4.4,15.4-4.4s10.6,5.2,10.6,12.4-4.4,12.5-11.1,16.7c-2.5-2.7-5.3-8.3-7.3-12.3h0ZM698.8,619.9c-5.9,0-9.7-4.4-12.2-7.3l-.8-1.1c1.9-3.6,2.7-7.3,3.7-10.7,1.9-7.4,3.8-14.2,9.8-14.2h.4c6.8.3,10.2,8.7,10.2,17.7s-5.1,15.6-11,15.6h0Z"/>
      <path class="st1" d="M753.2,619.1h52.3l2.2-3.5h-3.5c-.3-17.5-9.5-35.9-24.5-35.9s-13.9,5.2-17.2,10.6c-1.4,2.2-2.4,2.9-3.8,3.7l3.9,7.1c2.9-9.7,8.4-18,16.8-18s15.1,11.2,15.4,32.6h-46.4c-4-.3-6.2-2.9-6.2-7.9v-48.7l-15.1.7v3.1c5.4,0,6.8.8,6.8,3.1v41.4c0,9,6,11.8,14,11.8h5.3Z"/>
      <path class="st1" d="M526.2,619.1v-60.4l-12.4,2.4c4,1.3,4.1,2,4.1,4.2v53.8h8.3Z"/>
      <path class="st1" d="M779,637.3c2.7,0,4.9-2.1,4.9-4.8s-2.2-4.9-4.9-4.9-4.9,2.1-4.9,4.9,2.2,4.8,4.9,4.8Z"/>
      <path class="st2" d="M291.6,653.8c0,.4.5.6,1.4.6h.7c1.4,0,2.2.4,2.6,1,.3.7.5,2.4.5,5v20c-.1,6.3-.2,10.2-.5,11.5s-.9,2.4-1.9,3.3c-1,.9-2.2,1.4-3.5,1.4s-1.3-.2-1.7-.4c-.4-.3-.6-.7-.6-1.3s.1-.7.3-1.3c.3-.7.4-1.3.4-1.7,0-.7-.2-1.4-.7-1.8-.5-.4-1-.6-1.7-.6s-1.3.3-1.8.9c-.6.6-.8,1.4-.8,2.3,0,1.7.6,2.9,1.8,3.8,1.2.9,2.6,1.4,4.2,1.4,2.8,0,5.2-1,7.2-3.2,2-2.1,3.1-4.7,3.3-7.6.2-3,.4-9,.4-18s0-7,.2-16.3c-2.4.2-5,.3-7.8.3-1.3,0-1.9.3-1.9.6h0Z"/>
      <path class="st2" d="M359.8,679.5c-1.1,0-1.8-.3-2.2-.9s-.5-1.8-.5-3.6l.2-12.2c0-2.8-.2-4.7-.5-5.7s-1.2-2-2.6-2.9c-1.4-.9-3.1-1.3-5.2-1.3s-3.1.4-4.7,1.1c-1.6.7-3.1,1.9-4.7,3.3-1.1-1.5-2.3-2.6-3.6-3.3-1.3-.7-2.8-1.1-4.3-1.1s-3.3.4-5,1.3c-1.6.9-3.2,2.2-4.9,4,0-1,0-2.1.1-3.1,0-.7-.1-1.5-.4-2.3h-1.6c-1.4,0-3,.1-4.8.3-1.8.2-2.8.3-2.9.4-.2.1-.2.3-.2.5,0,.4.3.5.8.6,1.4,0,2.4.3,3,.9.6.6.9,1.3.9,2.2s.1,3.6.1,8-.1,7.6-.3,9.6c-.2,2-.5,3.1-.9,3.6-.4.4-1.2.6-2.4.7-.4,0-.6.2-.6.6s.6.6,1.8.6h10c.8,0,1.3-.2,1.3-.5s0-.5-.2-.5-.5-.1-1-.1c-1.4,0-2.2-.4-2.6-1.2s-.5-3-.5-6.5c0-5,.3-8.5.7-10.5.5-2,1.5-3.6,2.9-4.8,1.4-1.1,2.9-1.7,4.3-1.7s3,.7,3.9,2.2,1.4,4.5,1.4,9.1-.1,5.1-.3,7.7c-.2,2.6-.5,4.2-.9,4.8s-1.4.8-2.7.8-.9.2-.9.6.6.6,1.7.6h10.9c.9,0,1.3-.2,1.3-.6s-.4-.6-1-.6h-.6c-1.4,0-2.2-.3-2.7-1-.4-.7-.6-2.2-.6-4.8,0-7.2.4-12.1,1.3-14.9,1-1.5,2.1-2.6,3.3-3.3,1.1-.7,2.3-1.1,3.4-1.1s2.5.5,3.4,1.4c.9.9,1.5,2.1,1.8,3.6.3,1.5.4,3.8.4,7.2,0,7.1-.2,11-.6,11.7s-1.5,1.1-3.3,1.2c-.6,0-.8.3-.8.6s.5.6,1.5.6h9.9c1.2,0,1.8-.2,1.8-.6s-.4-.6-1.1-.6h0Z"/>
      <path class="st2" d="M393.3,679.2h-.6c-.4.1-.7.2-.9.2-1.1,0-1.8-.7-2.2-2.1-.4-1.4-.6-3.8-.6-7.1l.2-8.6c0-2.6-.2-4.3-.6-5.3-.4-.9-1.3-1.7-2.8-2.4-1.5-.7-3.4-1-6-1s-5.6.6-7.4,1.8c-1.8,1.2-2.7,2.6-2.7,4.2s.3,1.6.8,2.1c.6.5,1.1.7,1.6.7,1.3,0,2.2-1,2.6-3,.4-1.8.9-3,1.6-3.7.7-.6,1.7-.9,3.1-.9s2.9.5,3.9,1.6c.9,1.1,1.4,2.6,1.4,4.5s-.4,2.2-1,3c-.7.7-2.8,1.7-6.2,2.9-2.4.8-4.1,1.5-5.1,2-.9.5-1.8,1.4-2.6,2.7-.7,1.3-1.1,2.6-1.1,4s.6,3.4,1.9,4.6c1.3,1.1,3,1.7,5.1,1.7s3.5-.4,5-1.1c1.5-.8,2.7-1.9,3.8-3.4,0,1.8.3,3,.7,3.6.4.6,1.3.8,2.5.8,4.2,0,6.4-.4,6.4-1.3s-.3-.5-.7-.5h0ZM383.9,675.1c-.5,1.2-1.4,2.1-2.5,2.9-1.1.8-2.3,1.1-3.6,1.1s-2.2-.5-3-1.4c-.8-.9-1.2-2.1-1.2-3.4s.5-2.8,1.5-3.9c1-1,2.6-2.2,4.9-3.3,2.3-1.2,3.8-2.2,4.4-3.1.2,2.1.2,4.1.2,5.9s-.3,4.1-.8,5.3h0Z"/>
      <path class="st0" d="M300.1,640.2c.6-.5.9-1.1.9-1.9s-.3-1.5-.9-2c-.6-.5-1.2-.8-1.9-.8s-1.5.3-2,.8c-.5.6-.7,1.2-.7,1.9s.3,1.5.8,2,1.2.8,1.9.8,1.3-.3,1.9-.8h0Z"/>
      <path class="st0" d="M738,642.1c.5-.6.8-1.3.8-2.2s-.3-1.4-1-2c-.6-.6-1.4-.9-2.2-.9s-1.6.3-2.1.8c-.6.6-.8,1.3-.8,2.2s.3,1.6,1,2.1c.6.5,1.4.8,2.2.8s1.7-.3,2.2-.9h0Z"/>
      <path class="st0" d="M590.6,642.1c.5-.6.8-1.3.8-2.2s-.3-1.4-1-2c-.6-.6-1.4-.9-2.2-.9s-1.6.3-2.1.8c-.6.6-.8,1.3-.8,2.2s.3,1.6,1,2.1c.6.5,1.4.8,2.2.8s1.7-.3,2.2-.9h0Z"/>
      <path class="st2" d="M425.7,679.2h-.6c-.4.1-.7.2-.9.2-1.1,0-1.8-.7-2.2-2.1-.4-1.4-.6-3.8-.6-7.1l.2-8.6c0-2.6-.2-4.3-.6-5.3-.4-.9-1.3-1.7-2.8-2.4-1.5-.7-3.4-1-6-1s-5.6.6-7.4,1.8c-1.8,1.2-2.7,2.6-2.7,4.2s.3,1.6.8,2.1c.6.5,1.1.7,1.6.7,1.3,0,2.2-1,2.6-3,.4-1.8.9-3,1.6-3.7.7-.6,1.7-.9,3.1-.9s2.9.5,3.9,1.6c.9,1.1,1.4,2.6,1.4,4.5s-.4,2.2-1,3c-.7.7-2.8,1.7-6.2,2.9-2.4.8-4.1,1.5-5.1,2s-1.8,1.4-2.6,2.7c-.7,1.3-1.1,2.6-1.1,4s.6,3.4,1.9,4.6c1.3,1.1,3,1.7,5.1,1.7s3.5-.4,5-1.1c1.5-.8,2.7-1.9,3.8-3.4,0,1.8.3,3,.7,3.6s1.3.8,2.5.8c4.2,0,6.4-.4,6.4-1.3s-.3-.5-.7-.5h0ZM416.3,675.1c-.5,1.2-1.4,2.1-2.5,2.9-1.1.8-2.3,1.1-3.6,1.1s-2.2-.5-3-1.4c-.8-.9-1.2-2.1-1.2-3.4s.5-2.8,1.5-3.9c1-1,2.6-2.2,4.9-3.3,2.3-1.2,3.8-2.2,4.4-3.1.2,2.1.2,4.1.2,5.9s-.3,4.1-.8,5.3h0Z"/>
      <path class="st2" d="M251.7,638.4h-12.9c-5.9,13.9-11.1,24.5-15.6,31.9-1.7-2.8-3.1-5.6-4.4-8.5-1.3-2.9-3-6.5-5.3-10.8-1.9-3.6-3.9-7.8-6.1-12.5l-11.5-.3h-1.1c-.6,0-.9.2-.9.6s.4.6,1.3.7c1.9.3,3.4,1,4.4,2.2s1.5,3.6,1.5,6.9l-.5,14.5v5.7c0,4.8-.4,7.8-1.5,9.1-1,1.4-2.6,2.1-4.8,2.1-.7,0-1.1.3-1.1.7s.1.4.4.5c3.1-.2,5.7-.3,7.7-.3h7.3c.5,0,.8-.2.8-.5,0-.5-.6-.7-1.7-.7-1.7,0-3.1-.5-4-1.6-.9-1-1.4-3.3-1.4-6.7v-6.5c.1,0,.5-19.7.5-19.7,0-.5.1-.8.3-.8s.3.1.5.4c.2.2,1.6,2.9,4.3,8.1,2.6,5.2,4.9,9.8,6.7,13.9,3.6,7.2,5.6,11.4,6,12.8.2.6.4.8.6.8s.3,0,.5-.2c.1-.2.5-.9,1.1-2.5l2-4.9c.9-2.2,3.4-7.5,7.6-15.6l6.4-12.7c.2-.4.4-.5.6-.5s.3.3.3.9l-.3,7.7-.6,15.6c0,4.4-.2,7.2-.4,8.3-.3,1.1-.7,1.9-1.3,2.3s-1.8.8-3.6,1c-.5,0-.7.3-.7.6s.4.5,1.1.5h15.9c.7,0,1-.1,1-.5s-.3-.5-.8-.6c-1.9-.3-3.1-.7-3.8-1.3-.6-.6-1-1.4-1.1-2.4-.1-1-.1-4.4-.1-10.4s.1-7,.3-11.6.4-7.8.5-9.5c.2-1.7.7-2.9,1.4-3.7.8-.7,2.3-1.2,4.6-1.4.5,0,.8-.2.8-.6s-.2-.5-.7-.6Z"/>
      <path class="st2" d="M285.2,679.8c0-.4-.3-.5-.7-.5h-.6c-.4.1-.7.2-.9.2-1.1,0-1.8-.7-2.2-2.1-.4-1.4-.6-3.8-.6-7.1l.2-8.6c0-2.6-.2-4.3-.6-5.3-.4-.9-1.3-1.7-2.8-2.4-1.5-.7-3.4-1-6-1s-5.6.6-7.4,1.8c-1.8,1.2-2.7,2.6-2.7,4.2s.3,1.6.8,2.1c.6.5,1.1.7,1.6.7,1.3,0,2.2-1,2.6-3,.4-1.8.9-3,1.6-3.7.7-.6,1.7-.9,3.1-.9s2.9.5,3.9,1.6c.9,1.1,1.4,2.6,1.4,4.5s-.4,2.2-1,3c-.7.7-2.8,1.7-6.2,2.9-2.4.8-4.1,1.5-5.1,2s-1.8,1.4-2.6,2.7c-.7,1.3-1.1,2.6-1.1,4s.6,3.4,1.9,4.6c1.3,1.1,3,1.7,5.1,1.7s3.5-.4,5-1.1c1.5-.8,2.7-1.9,3.8-3.4,0,1.8.3,3,.7,3.6s1.3.8,2.5.8c4.2,0,6.4-.4,6.4-1.3h0ZM275.1,675.1c-.5,1.2-1.4,2.1-2.5,2.9-1.1.8-2.3,1.1-3.6,1.1s-2.2-.5-3-1.4c-.8-.9-1.2-2.1-1.2-3.4s.5-2.8,1.5-3.9c1-1,2.6-2.2,4.9-3.3,2.3-1.2,3.8-2.2,4.4-3.1.2,2.1.2,4.1.2,5.9s-.3,4.1-.8,5.3h0Z"/>
      <path class="st2" d="M742.2,679.7c-1,0-1.8-.3-2.3-.7-.5-.4-.8-1.4-.8-3v-23.1c-.9,0-2.6.1-5,.3-2.4.2-3.7.3-3.9.4-.2.1-.3.3-.3.5,0,.4.3.5.8.5,1.6,0,2.6.4,3.1,1,.5.7.8,2.8.8,6.4l-.2,13.4c0,1.8-.2,2.8-.5,3.2-.3.4-1.1.6-2.3.8s-1.8.4-1.8.8.3.6.8.6.4,0,.6,0c1-.2,3-.3,5.7-.3s3.6.1,5.6.4h.6c.5,0,.7-.2.7-.5s-.6-.7-1.8-.7h0Z"/>
      <path class="st2" d="M718.7,666.8c-.7-.6-2.2-1.4-4.6-2.5-3.8-1.7-5.8-2.7-6.2-3-.4-.3-.7-.7-1.1-1.4s-.6-1.3-.6-2c0-1.2.5-2.2,1.5-2.9,1-.7,2.2-1.1,3.8-1.1s2,.2,3,.7c1,.5,2,1.5,2.8,3.1.9,1.6,1.4,2.7,1.6,3.3s.5.9.8.9.6-.4.6-1c0-1.1,0-2.6-.2-4.3-.1-1.7-.3-2.7-.4-2.9s-.3-.3-.4-.3-.4.2-.6.5c-.3.4-.5.5-.7.5s-.6-.1-.9-.3c-2.1-1.1-4.1-1.7-5.9-1.7s-4.4.7-6.1,2.2c-1.7,1.5-2.5,3.3-2.5,5.6s.3,2.2.8,3.2c.5,1,1.3,1.8,2.2,2.4s2.8,1.5,5.6,2.8c4.1,1.8,6.2,3.9,6.2,6.3s-.6,2.8-1.7,3.7c-1.1.9-2.4,1.4-3.8,1.4-2,0-3.8-.8-5.3-2.6-1.5-1.7-2.7-3.8-3.6-6.3-.2-.4-.3-.6-.6-.6-.4,0-.6.4-.6,1.2s0,1.7.1,3.6c0,2.2,0,3.6.2,4.2,0,.6.2.9.5.9s.6-.3,1-.9c.3-.5.6-.7,1-.7s.9.3,2,.8c2.1,1,3.9,1.5,5.4,1.5,2.6,0,4.8-.9,6.6-2.7,1.8-1.8,2.8-4,2.8-6.4s-.3-2.1-.7-3c-.5-1-1.1-1.7-1.8-2.3h-.1Z"/>
      <path class="st2" d="M806.3,653.2s-.5,0-.9,0c-1,.1-2.9.1-5.7.1h-2c-1,0-1.6-.1-1.7-.1-.5,0-.7.2-.7.5s.3.6.9.7c2.2.2,3.3,1.2,3.3,3s-.3,3.2-1,5.5c-.7,2.3-2.2,6.6-4.5,13-4.9-11.6-7.4-17.9-7.4-18.9s.8-2,2.6-2.5c.9-.3,1.4-.5,1.4-.9s-.3-.6-.8-.6-.5,0-.9.1c-.7.2-2.9.2-6.3.2s-3-.1-4.3-.3c-.3,0-.5,0-.7,0-.5,0-.8.2-.8.6s.4.6,1,.7c.8.1,1.5.5,2.1,1.3.7.7,1.9,3.2,3.7,7.5s3.4,8.2,5,11.8c1.5,3.7,2.2,6.2,2.2,7.6s-.9,4.4-2.9,7.6c-1.9,3.2-3.7,4.9-5.2,4.9s-1.5-.6-1.6-1.8c-.2-1.8-1.1-2.7-2.9-2.7s-1.4.3-2,.9-1,1.4-1,2.2.5,2,1.5,3,2.3,1.5,4,1.5,3.3-.6,5-1.9c1.7-1.3,3.3-3.6,4.9-7,1.6-3.3,3.7-8.8,6.2-16.4,2.6-7.7,4.4-12.7,5.4-14.8,1-2.1,2.4-3.4,4.1-3.8.6-.2.9-.4.9-.7s-.3-.6-.8-.6h0Z"/>
      <path class="st2" d="M688.4,653c-1.7,0-3.3.6-4.9,1.8-1.6,1.2-3,3-4.3,5.4-.2-3.5-.3-5.9-.5-7l-6,.3c-1.8.1-2.8.2-3,.3s-.3.3-.3.4c0,.4.4.6,1.1.6,1.9.1,3,.8,3.2,2.2.3,1.4.4,5.7.4,12.8s-.2,7.6-.5,8.4-1.1,1.2-2.5,1.3c-1,0-1.5.3-1.5.6s.4.6,1.1.6h10.3c1,0,1.5-.2,1.5-.7s-.2-.4-.6-.5c-1.4-.2-2.3-.6-2.7-1.2s-.5-3-.5-7.2.2-7.6.6-9c.4-1.5,1.1-2.8,2.3-4s2.2-1.8,3.3-1.8,2,.7,2.8,2.2c.6,1.1,1.3,1.7,2.1,1.7,1.7,0,2.6-1,2.6-3.1s-.4-2-1.3-2.9c-.9-.8-1.9-1.3-3.1-1.3h0Z"/>
      <path class="st2" d="M461.7,679.8c-.5,0-1.1-.3-1.6-.7-.6-.4-.8-.9-.9-1.5,0-.6-.1-2.2-.1-5l.2-8.6c0-4.1-.8-7.1-2.3-8.7-1.5-1.6-3.7-2.5-6.6-2.5s-6.7,1.6-9.3,4.9c0-1.4-.1-3.1-.1-5.1v-16.1c-2.4.2-4.6.2-6.7.2h-2.1c-.2,0-.2.2-.2.3,0,.3.3.5.9.6,1,.2,1.8.9,2.5,2,.7,1.2,1.1,3.1,1.1,5.7,0,2.6.1,8.2.1,16.6s-.1,8.6-.4,11.7c-.3,3-.6,4.8-.9,5.2s-1,.7-2.1.9c-.5,0-.8.3-.8.6s.3.5,1,.5c1,0,2.2-.1,3.7-.1h6.5c.5.1.8,0,.8-.4s-.3-.5-.8-.6c-1.3-.3-2.1-.8-2.4-1.6-.3-.8-.4-2.6-.4-5.2,0-4,.1-7.3.4-10,.3-2.7,1.1-4.8,2.5-6.2,1.4-1.4,3-2.1,4.9-2.1s3.4.8,4.6,2.5c1.1,1.7,1.7,5.4,1.7,11.2s-.2,8.6-.4,9.6c-.3,1-1.2,1.6-2.7,1.8-.5,0-.7.3-.7.6s.2.5.6.6h9.6c.9,0,1.4-.2,1.4-.6s-.3-.4-.9-.4h0Z"/>
      <path class="st2" d="M770,676.8s-.4.2-.9.5c-1.4.8-2.7,1.3-3.8,1.3s-2.8-.5-3.7-1.6c-.8-1.1-1.3-3.4-1.3-7s.2-9.3.5-14.1c4.5-.3,7.4-.5,8.5-.5.3-.3.5-.9.5-1.9s-.7-.4-1.9-.4h-7.1c0,.1,0-4.9,0-4.9,0-1.1,0-2.1,0-2.9v-.6c0-.6-.2-.9-.6-.9s-.6.4-.7,1.1c-.4,2.9-1.6,5.1-3.7,6.6-2.1,1.6-3.6,2.5-4.4,2.8-.5.2-.8.4-.8.7s.3.5.7.5h1.9c1.9.2,2.9.3,3.1.3-.4,7.7-.6,13.2-.6,16.4s.6,5.3,1.7,6.9c1.1,1.5,2.8,2.3,5,2.3s4.1-.6,5.6-1.7,2.3-1.9,2.3-2.5-.2-.5-.4-.5h0Z"/>
      <path class="st2" d="M574,679.5c-1.1-.3-1.8-.7-2.1-1.2-.3-.5-.5-1.8-.5-3.8l.2-10.9c0-3.2-.4-5.5-1.1-6.9-.7-1.4-1.8-2.3-3.2-2.8-1.4-.6-2.8-.8-4.3-.8s-3.7.5-5.3,1.6c-1.6,1-3.1,2.7-4.4,4.8-.1-3-.4-5.2-.9-6.4-2.6,0-4.1.1-4.4.1h-2.6c-.6,0-1,.2-1,.5s.4.6,1.3.8c.9.2,1.7.8,2.2,1.7s.8,3.3.8,7.2,0,7.5-.2,10.3c-.1,2.8-.4,4.4-.7,4.9-.4.5-1,.8-2,1-1,.2-1.6.5-1.6.8s.5.5,1.4.5h2.6c3.4,0,5.4,0,6,0h1.7c.5.1.7,0,.7-.4s-.3-.6-.7-.6c-1.5-.2-2.5-.6-2.8-1.5-.4-.8-.6-2.6-.6-5.5,0-6.4.8-10.9,2.5-13.6,1.7-2.7,3.8-4.1,6.3-4.1s3.1.7,4.3,2.2c1.1,1.5,1.7,4.5,1.7,9.1s0,3.8-.2,6.5c-.1,2.7-.2,4.2-.4,4.7-.2.5-.4.8-.8,1.1-.4.3-1.1.6-2.4.8-.4.1-.6.3-.6.5s.4.6,1.2.6c2-.2,3.9-.2,5.6-.2s3.4.1,4.4.3h.5c.4,0,.6-.2.6-.5s-.4-.5-1.1-.7h0Z"/>
      <path class="st2" d="M536.3,638.3h-13c-1,0-1.6.2-1.6.6s.4.7,1.2.7c2,0,3.5.8,4.5,2.3,1,1.5,1.5,4.8,1.5,9.6,0,9.5-.3,15.7-.9,18.6-.6,2.9-1.9,5-3.9,6.4-2,1.5-4.9,2.2-8.7,2.2s-6.5-.8-8.6-2.4c-2.1-1.6-3.3-3.7-3.8-6.3s-.6-7.4-.6-14.3.2-9.5.6-11.2.9-3,1.7-3.7,1.9-1.1,3.4-1.3c.7,0,1-.3,1-.7s-.5-.6-1.4-.6h-16.3c-.9,0-1.4.2-1.4.7s.4.5,1.1.5c2.2,0,3.7.9,4.4,2.7s1,6.7,1,14.6v9c-.1,3.9.4,6.9,1.3,8.9.9,2,2.7,3.6,5.4,4.8,2.7,1.2,5.9,1.8,9.6,1.8s6.7-.5,9.3-1.6c2.5-1,4.4-2.5,5.6-4.2,1.3-1.7,2.1-4.4,2.5-7.9.4-3.6.6-7.8.6-12.9s.1-7.2.4-9.3c.3-2.1.7-3.6,1.5-4.3.8-.8,2-1.3,3.6-1.6.5,0,.7-.3.7-.6s-.3-.6-.9-.6h-.1Z"/>
      <path class="st2" d="M594.9,679.7c-1,0-1.8-.3-2.3-.7-.5-.4-.8-1.4-.8-3v-23.1c-.9,0-2.6.1-5,.3-2.4.2-3.7.3-3.9.4-.2.1-.3.3-.3.5,0,.4.3.5.8.5,1.6,0,2.6.4,3.1,1,.5.7.8,2.8.8,6.4l-.2,13.4c0,1.8-.2,2.8-.5,3.2-.3.4-1.1.6-2.3.8s-1.8.4-1.8.8.3.6.8.6.4,0,.6,0c1-.2,3-.3,5.7-.3s3.6.1,5.6.4h.6c.5,0,.7-.2.7-.5s-.6-.7-1.8-.7h0Z"/>
      <path class="st2" d="M632.2,653.4h-7.8c-.5,0-.8.2-.8.6s.4.5,1,.6c1.2.1,1.8.6,1.8,1.6,0,2.3-2.4,8.6-7,18.8-5.2-10.8-7.8-17-7.8-18.7s.6-1.5,1.7-1.7c.8-.1,1.1-.4,1.1-.7s-.4-.6-1.1-.6h-10.1c-.6,0-.9.2-.9.6s.3.5.7.6c.8.1,1.3.3,1.6.5.3.2.7.7,1.3,1.6.6.9,1.6,2.8,2.9,5.9l4,9,3.9,8.4c.4.9.7,1.4,1,1.4s.7-.4.9-1.1c.2-.6.8-1.9,1.8-4,1-2.2,2.7-6.2,5-12.1,1.4-3.5,2.5-5.9,3.2-7.2s2.1-2,3.9-2.2c.5,0,.7-.2.7-.6s-.4-.6-1-.6h0Z"/>
      <path class="st2" d="M651.2,652.9c-3.1,0-6,1.4-8.8,4.2-2.7,2.8-4.1,6.4-4.1,10.6s1.3,7.2,3.7,9.8c2.5,2.6,5.5,3.9,9.1,3.9s4.7-.5,6.6-1.6c2-1,3.4-2.3,4.2-3.8,0-.6-.2-.8-.6-.8s-.6.3-1.3.9c-2.2,2.1-4.7,3.1-7.3,3.1s-4.9-1-6.7-3.2c-1.8-2.1-2.7-4.7-2.7-7.8s0-1.5.1-2.6l16.3-.3c1.5,0,2.4-.1,2.5-.3.2-.2.2-.6.2-1,0-3-1.2-5.6-3.6-7.8s-5-3.3-7.9-3.3h0ZM656.6,663.2c-.7.5-1.7.7-3,.8h-1.7c-2.7.1-5.4,0-8.2-.1.5-3.5,1.5-6,3-7.6,1.6-1.6,3.1-2.3,4.7-2.3s3.1.7,4.4,2c1.3,1.4,1.9,2.9,1.9,4.8s-.4,2-1,2.5h0Z"/>
    </g>
  </g>
</svg>